<?xml version="1.0" encoding="UTF-8" standalone="no"?>
<!DOCTYPE svg PUBLIC "-//W3C//DTD SVG 1.0//EN"
"http://www.w3.org/TR/2001/REC-SVG-20010904/DTD/svg10.dtd">
<!-- Created with Inkscape (http://www.inkscape.org/) -->
<svg
   id="svg1"
   sodipodi:version="0.32"
   inkscape:version="0.39"
   xmlns="http://www.w3.org/2000/svg"
   xmlns:sodipodi="http://sodipodi.sourceforge.net/DTD/sodipodi-0.dtd"
   xmlns:inkscape="http://www.inkscape.org/namespaces/inkscape"
   xmlns:xlink="http://www.w3.org/1999/xlink"
   xmlns:rdf="http://www.w3.org/1999/02/22-rdf-syntax-ns#"
   xmlns:cc="http://web.resource.org/cc/"
   xmlns:dc="http://purl.org/dc/elements/1.1/"
   width="210mm"
   height="297mm"
   sodipodi:docbase="/home/josh/code/ome3/components/jars/docs/images"
   sodipodi:docname="drawing.svg">
  <path
     style="fill:#0000ac;fill-opacity:0.44444445;fill-rule:evenodd;stroke:#000000;stroke-width:0.18119916pt;stroke-linecap:butt;stroke-linejoin:miter;stroke-opacity:1.0000000;"
     d="M 123.24039,308.38094 C 123.24039,326.01710 123.24039,343.65325 123.24039,361.28941 C 141.17762,361.28941 159.11486,361.28941 177.05210,361.28941 C 177.05210,343.65325 177.05210,326.01710 177.05210,308.38094 C 159.11486,308.38094 141.17762,308.38094 123.24039,308.38094 z "
     id="path5154" />
  <defs
     id="defs3" />
  <sodipodi:namedview
     id="base"
     pagecolor="#ffffff"
     bordercolor="#666666"
     borderopacity="1.0"
     inkscape:pageopacity="0.0"
     inkscape:pageshadow="2"
     inkscape:zoom="0.86831672"
     inkscape:cx="198.90172"
     inkscape:cy="623.73369"
     inkscape:window-width="958"
     inkscape:window-height="736"
     showgrid="true"
     inkscape:grid-bbox="true"
     showguides="false"
     inkscape:guide-bbox="false"
     inkscape:window-x="64"
     inkscape:window-y="0" />
  <metadata
     id="metadata4">
    <rdf:RDF
       id="RDF5">
      <cc:Work
         rdf:about=""
         id="Work6">
        <dc:format
           id="format7">image/svg+xml</dc:format>
        <dc:type
           id="type9"
           rdf:resource="http://purl.org/dc/dcmitype/StillImage" />
      </cc:Work>
    </rdf:RDF>
  </metadata>
  <path
     style="fill:#0000ac;fill-opacity:0.44444445;fill-rule:evenodd;stroke:#000000;stroke-width:1.3422796pt;stroke-linecap:butt;stroke-linejoin:miter;stroke-opacity:1.0000000;"
     d="M 107.13814,7.9255168 C 107.13814,130.63702 107.13814,253.34850 107.13814,376.06004 C 248.60276,376.06004 390.06738,376.06004 531.53199,376.06004 C 531.53199,253.34850 531.53199,130.63702 531.53199,7.9255168 C 390.06738,7.9255168 248.60276,7.9255168 107.13814,7.9255168 z "
     id="path5147" />
  <path
     style="fill:#0000ac;fill-opacity:0.44444445;fill-rule:evenodd;stroke:#000000;stroke-width:0.18119916pt;stroke-linecap:butt;stroke-linejoin:miter;stroke-opacity:1.0000000;"
     d="M 459.85457,24.916377 C 459.85457,42.552531 459.85457,60.188682 459.85457,77.824841 C 477.79180,77.824841 495.72904,77.824841 513.66628,77.824841 C 513.66628,60.188682 513.66628,42.552531 513.66628,24.916377 C 495.72904,24.916377 477.79180,24.916377 459.85457,24.916377 z "
     id="path5148" />
  <path
     style="fill:#0000ac;fill-opacity:0.44444445;fill-rule:evenodd;stroke:#000000;stroke-width:0.18119916pt;stroke-linecap:butt;stroke-linejoin:miter;stroke-opacity:1.0000000;"
     d="M 459.85457,95.797162 C 459.85457,113.43332 459.85457,131.06947 459.85457,148.70563 C 477.79180,148.70563 495.72904,148.70563 513.66628,148.70563 C 513.66628,131.06947 513.66628,113.43332 513.66628,95.797162 C 495.72904,95.797162 477.79180,95.797162 459.85457,95.797162 z "
     id="path5149" />
  <path
     style="fill:#0000ac;fill-opacity:0.44444445;fill-rule:evenodd;stroke:#000000;stroke-width:0.18119916pt;stroke-linecap:butt;stroke-linejoin:miter;stroke-opacity:1.0000000;"
     d="M 459.85457,166.66330 C 459.85457,184.29946 459.85457,201.93561 459.85457,219.57177 C 477.79180,219.57177 495.72904,219.57177 513.66628,219.57177 C 513.66628,201.93561 513.66628,184.29946 513.66628,166.66330 C 495.72904,166.66330 477.79180,166.66330 459.85457,166.66330 z "
     id="path5150" />
  <path
     style="fill:#0000ac;fill-opacity:0.44444445;fill-rule:evenodd;stroke:#000000;stroke-width:0.18119916pt;stroke-linecap:butt;stroke-linejoin:miter;stroke-opacity:1.0000000;"
     d="M 459.85457,237.52945 C 459.85457,255.16560 459.85457,272.80175 459.85457,290.43791 C 477.79180,290.43791 495.72904,290.43791 513.66628,290.43791 C 513.66628,272.80175 513.66628,255.16560 513.66628,237.52945 C 495.72904,237.52945 477.79180,237.52945 459.85457,237.52945 z "
     id="path5151" />
  <path
     style="fill:#0000ac;fill-opacity:0.44444445;fill-rule:evenodd;stroke:#000000;stroke-width:0.18119916pt;stroke-linecap:butt;stroke-linejoin:miter;stroke-opacity:1.0000000;"
     d="M 459.85457,308.38094 C 459.85457,326.01710 459.85457,343.65325 459.85457,361.28941 C 477.79180,361.28941 495.72904,361.28941 513.66628,361.28941 C 513.66628,343.65325 513.66628,326.01710 513.66628,308.38094 C 495.72904,308.38094 477.79180,308.38094 459.85457,308.38094 z "
     id="path5153" />
  <path
     style="fill:#0000ac;fill-opacity:0.44444445;fill-rule:evenodd;stroke:#000000;stroke-width:0.18119916pt;stroke-linecap:butt;stroke-linejoin:miter;stroke-opacity:1.0000000;"
     d="M 123.24039,237.52944 C 123.24039,255.16560 123.24039,272.80175 123.24039,290.43791 C 141.17762,290.43791 159.11486,290.43791 177.05210,290.43791 C 177.05210,272.80175 177.05210,255.16560 177.05210,237.52944 C 159.11486,237.52944 141.17762,237.52944 123.24039,237.52944 z "
     id="path5155" />
  <path
     style="fill:#0000ac;fill-opacity:0.44444445;fill-rule:evenodd;stroke:#000000;stroke-width:0.18119916pt;stroke-linecap:butt;stroke-linejoin:miter;stroke-opacity:1.0000000;"
     d="M 124.12900,166.66330 C 124.12900,184.29946 124.12900,201.93561 124.12900,219.57177 C 142.06623,219.57177 160.00347,219.57177 177.94071,219.57177 C 177.94071,201.93561 177.94071,184.29946 177.94071,166.66330 C 160.00347,166.66330 142.06623,166.66330 124.12900,166.66330 z "
     id="path5156" />
  <path
     style="fill:#0000ac;fill-opacity:0.44444445;fill-rule:evenodd;stroke:#000000;stroke-width:0.18119916pt;stroke-linecap:butt;stroke-linejoin:miter;stroke-opacity:1.0000000;"
     d="M 124.12900,95.797156 C 124.12900,113.43332 124.12900,131.06947 124.12900,148.70563 C 142.06623,148.70563 160.00347,148.70563 177.94071,148.70563 C 177.94071,131.06947 177.94071,113.43332 177.94071,95.797156 C 160.00347,95.797156 142.06623,95.797156 124.12900,95.797156 z "
     id="path5157" />
  <path
     style="fill:#0000ac;fill-opacity:0.44444445;fill-rule:evenodd;stroke:#000000;stroke-width:0.18119916pt;stroke-linecap:butt;stroke-linejoin:miter;stroke-opacity:1.0000000;"
     d="M 124.12900,24.931014 C 124.12900,42.567174 124.12900,60.203324 124.12900,77.839484 C 142.06623,77.839484 160.00347,77.839484 177.94071,77.839484 C 177.94071,60.203324 177.94071,42.567174 177.94071,24.931014 C 160.00347,24.931014 142.06623,24.931014 124.12900,24.931014 z "
     id="path5152" />
  <path
     style="fill:#0000ac;fill-opacity:0.44313726;fill-rule:evenodd;stroke:#000000;stroke-width:0.50126534pt;stroke-linecap:butt;stroke-linejoin:miter;stroke-opacity:1.0000000;"
     d="M 195.56863,237.47727 C 195.56863,266.87897 195.56863,296.28065 195.56863,325.68235 C 277.90847,325.68235 360.24836,325.68235 442.58825,325.68235 C 442.58825,296.28065 442.58825,266.87897 442.58825,237.47727 C 360.24836,237.47727 277.90847,237.47727 195.56863,237.47727 z "
     id="path4557" />
</svg>
