<?xml version="1.0" encoding="UTF-8" standalone="no"?>
<!DOCTYPE svg PUBLIC "-//W3C//DTD SVG 20010904//EN"
"http://www.w3.org/TR/2001/REC-SVG-20010904/DTD/svg10.dtd">
<!-- Created with Inkscape (http://www.inkscape.org/) -->
<svg
   id="svg1"
   sodipodi:version="0.32"
   inkscape:version="0.39"
   width="841.88975pt"
   height="595.27559pt"
   sodipodi:docbase="/home/josh/code/ome3/components/jars/docs/images"
   sodipodi:docname="graph-6-del.svg"
   xmlns="http://www.w3.org/2000/svg"
   xmlns:cc="http://web.resource.org/cc/"
   xmlns:inkscape="http://www.inkscape.org/namespaces/inkscape"
   xmlns:sodipodi="http://sodipodi.sourceforge.net/DTD/sodipodi-0.dtd"
   xmlns:rdf="http://www.w3.org/1999/02/22-rdf-syntax-ns#"
   xmlns:xml="http://www.w3.org/XML/1998/namespace"
   xmlns:dc="http://purl.org/dc/elements/1.1/"
   xmlns:xlink="http://www.w3.org/1999/xlink">
  <defs
     id="defs3" />
  <sodipodi:namedview
     id="base"
     pagecolor="#ffffff"
     bordercolor="#666666"
     borderopacity="1.0"
     inkscape:pageopacity="0.0000000"
     inkscape:pageshadow="2"
     inkscape:zoom="0.94074075"
     inkscape:cx="436.99500"
     inkscape:cy="288.23280"
     inkscape:window-width="958"
     inkscape:window-height="736"
     showborder="true"
     showgrid="true"
     inkscape:grid-bbox="true"
     inkscape:grid-points="true"
     gridspacingx="10.000000mm"
     gridspacingy="10.000000mm"
     gridcolor="#3f3fff"
     gridhicolor="0.18431373"
     inkscape:window-x="64"
     inkscape:window-y="13" />
  <metadata
     id="metadata4">
    <rdf:RDF
       id="RDF5">
      <cc:Work
         rdf:about=""
         id="Work6">
        <dc:format
           id="format7">image/svg+xml</dc:format>
        <dc:type
           id="type9"
           rdf:resource="http://purl.org/dc/dcmitype/StillImage" />
      </cc:Work>
    </rdf:RDF>
  </metadata>
  <path
     style="fill:#ccccff;fill-opacity:1.0000000;fill-rule:evenodd;stroke:#ccccff;stroke-width:3.9625001;stroke-linecap:butt;stroke-linejoin:miter;stroke-miterlimit:4.0000000;stroke-opacity:1.0000000;"
     d="M 100.81609,209.57967 C 211.55336,298.24979 211.55336,298.24979 211.55336,298.24979 L 210.73260,299.29473"
     id="path5302" />
  <path
     style="fill:#ccccff;fill-opacity:1.0000000;fill-rule:evenodd;stroke:#ccccff;stroke-width:3.9625001;stroke-linecap:butt;stroke-linejoin:miter;stroke-miterlimit:4.0000000;stroke-opacity:1.0000000;"
     d="M 86.817960,209.57967 C 84.813540,351.42859 84.813540,351.42859 84.813540,351.42859 L 83.484810,351.42227"
     id="path5313" />
  <path
     style="fill:#ccccff;fill-opacity:1.0000000;fill-rule:evenodd;stroke:#ccccff;stroke-width:3.9625001;stroke-linecap:butt;stroke-linejoin:miter;stroke-miterlimit:4.0000000;stroke-opacity:1.0000000;"
     d="M 206.15984,320.74829 C 307.62798,419.89139 307.62798,419.89139 307.62798,419.89139 L 306.70831,420.85044"
     id="path5314" />
  <path
     style="fill:#ccccff;fill-opacity:1.0000000;fill-rule:evenodd;stroke:#ccccff;stroke-width:3.9625001;stroke-linecap:butt;stroke-linejoin:miter;stroke-miterlimit:4.0000000;stroke-opacity:1.0000000;"
     d="M 311.99599,457.61117 C 207.34757,553.39135 207.34757,553.39135 207.34757,553.39135 L 206.44131,552.41962"
     id="path5315" />
  <path
     style="fill:#ccccff;fill-opacity:1.0000000;fill-rule:evenodd;stroke:#ccccff;stroke-width:3.9625001;stroke-linecap:butt;stroke-linejoin:miter;stroke-miterlimit:4.0000000;stroke-opacity:1.0000000;"
     d="M 823.10609,139.95203 C 726.59449,243.92629 726.59449,243.92629 726.59449,243.92629 L 725.61220,243.03149"
     id="path5320" />
  <path
     style="fill:#ccccff;fill-opacity:1.0000000;fill-rule:evenodd;stroke:#ccccff;stroke-width:4.6641793;stroke-linecap:butt;stroke-linejoin:miter;stroke-miterlimit:4.0000000;stroke-opacity:1.0000000;"
     d="M 847.58230,152.21232 C 911.92758,336.30759 911.92758,336.30759 911.92758,336.30759 L 910.72108,336.91445"
     id="path5316" />
  <path
     style="fill:#ccccff;fill-opacity:1.0000000;fill-rule:evenodd;stroke:#ccccff;stroke-width:3.9625001;stroke-linecap:butt;stroke-linejoin:miter;stroke-miterlimit:4.0000000;stroke-opacity:1.0000000;"
     d="M 929.03443,375.67217 C 988.43160,504.50196 988.43160,504.50196 988.43160,504.50196 L 987.23020,505.06958"
     id="path5318" />
  <path
     style="fill:#ccccff;fill-opacity:1.0000000;fill-rule:evenodd;stroke:#ccccff;stroke-width:4.7325277;stroke-linecap:butt;stroke-linejoin:miter;stroke-miterlimit:4.0000000;stroke-opacity:1.0000000;"
     d="M 881.29779,376.09130 C 736.80577,462.30220 736.80577,462.30220 736.80577,462.30220 L 736.00842,460.91714"
     id="path940" />
  <path
     sodipodi:type="arc"
     style="fill:#ccccff;fill-opacity:1.0000000;fill-rule:evenodd;stroke:none;stroke-width:1.0000000pt;stroke-linecap:butt;stroke-linejoin:miter;stroke-opacity:1.0000000;"
     id="path5303"
     sodipodi:cx="606.34845"
     sodipodi:cy="235.18701"
     sodipodi:rx="66.879921"
     sodipodi:ry="31.889763"
     d="M 673.22837 235.18701 A 66.879921 31.889763 0 1 0 539.46853,235.18701 A 66.879921 31.889763 0 1 0 673.22837 235.18701 z"
     transform="matrix(0.735099,0.000000,0.000000,0.729167,-356.9271,23.92777)" />
  <path
     sodipodi:type="arc"
     style="fill:#ccccff;fill-opacity:1.0000000;fill-rule:evenodd;stroke:none;stroke-width:1.0000000pt;stroke-linecap:butt;stroke-linejoin:miter;stroke-opacity:1.0000000;"
     id="path5304"
     sodipodi:cx="606.34845"
     sodipodi:cy="235.18701"
     sodipodi:rx="66.879921"
     sodipodi:ry="31.889763"
     d="M 673.22837 235.18701 A 66.879921 31.889763 0 1 0 539.46853,235.18701 A 66.879921 31.889763 0 1 0 673.22837 235.18701 z"
     transform="matrix(0.735099,0.000000,0.000000,0.729167,-228.9249,142.4070)" />
  <path
     sodipodi:type="arc"
     style="fill:#ccccff;fill-opacity:1.0000000;fill-rule:evenodd;stroke:none;stroke-width:1.0000000pt;stroke-linecap:butt;stroke-linejoin:miter;stroke-opacity:1.0000000;"
     id="path5305"
     sodipodi:cx="606.34845"
     sodipodi:cy="235.18701"
     sodipodi:rx="66.879921"
     sodipodi:ry="31.889763"
     d="M 673.22837 235.18701 A 66.879921 31.889763 0 1 0 539.46853,235.18701 A 66.879921 31.889763 0 1 0 673.22837 235.18701 z"
     transform="matrix(0.735099,0.000000,0.000000,0.729167,-130.5982,271.9592)" />
  <path
     sodipodi:type="arc"
     style="fill:#ccccff;fill-opacity:1.0000000;fill-rule:evenodd;stroke:none;stroke-width:1.0000000pt;stroke-linecap:butt;stroke-linejoin:miter;stroke-opacity:1.0000000;"
     id="path5306"
     sodipodi:cx="606.34845"
     sodipodi:cy="235.18701"
     sodipodi:rx="66.879921"
     sodipodi:ry="31.889763"
     d="M 673.22837 235.18701 A 66.879921 31.889763 0 1 0 539.46853,235.18701 A 66.879921 31.889763 0 1 0 673.22837 235.18701 z"
     transform="matrix(0.735099,0.000000,0.000000,0.729167,391.3703,-34.75833)" />
  <path
     sodipodi:type="arc"
     style="fill:#ccccff;fill-opacity:1.0000000;fill-rule:evenodd;stroke:none;stroke-width:1.0000000pt;stroke-linecap:butt;stroke-linejoin:miter;stroke-opacity:1.0000000;"
     id="path5307"
     sodipodi:cx="606.34845"
     sodipodi:cy="235.18701"
     sodipodi:rx="66.879921"
     sodipodi:ry="31.889763"
     d="M 673.22837 235.18701 A 66.879921 31.889763 0 1 0 539.46853,235.18701 A 66.879921 31.889763 0 1 0 673.22837 235.18701 z"
     transform="matrix(0.735099,0.000000,0.000000,0.729167,267.1381,83.72099)" />
  <path
     sodipodi:type="arc"
     style="fill:#ccccff;fill-opacity:1.0000000;fill-rule:evenodd;stroke:none;stroke-width:1.0000000pt;stroke-linecap:butt;stroke-linejoin:miter;stroke-opacity:1.0000000;"
     id="path5308"
     sodipodi:cx="606.34845"
     sodipodi:cy="235.18701"
     sodipodi:rx="66.879921"
     sodipodi:ry="31.889763"
     d="M 673.22837 235.18701 A 66.879921 31.889763 0 1 0 539.46853,235.18701 A 66.879921 31.889763 0 1 0 673.22837 235.18701 z"
     transform="matrix(0.735099,0.000000,0.000000,0.729167,471.7640,190.0202)" />
  <path
     sodipodi:type="arc"
     style="fill:#ccccff;fill-opacity:1.0000000;fill-rule:evenodd;stroke:none;stroke-width:1.0000000pt;stroke-linecap:butt;stroke-linejoin:miter;stroke-opacity:1.0000000;"
     id="path5309"
     sodipodi:cx="606.34845"
     sodipodi:cy="235.18701"
     sodipodi:rx="66.879921"
     sodipodi:ry="31.889763"
     d="M 673.22837 235.18701 A 66.879921 31.889763 0 1 0 539.46853,235.18701 A 66.879921 31.889763 0 1 0 673.22837 235.18701 z"
     transform="matrix(0.735099,0.000000,0.000000,0.729167,267.1381,308.4995)" />
  <path
     sodipodi:type="arc"
     style="fill:#ccccff;fill-opacity:1.0000000;fill-rule:evenodd;stroke:none;stroke-width:1.0000000pt;stroke-linecap:butt;stroke-linejoin:miter;stroke-opacity:1.0000000;"
     id="path2816"
     sodipodi:cx="606.34845"
     sodipodi:cy="235.18701"
     sodipodi:rx="66.879921"
     sodipodi:ry="31.889763"
     d="M 673.22837 235.18701 A 66.879921 31.889763 0 1 0 539.46853,235.18701 A 66.879921 31.889763 0 1 0 673.22837 235.18701 z"
     transform="matrix(0.735099,0.000000,0.000000,0.729167,267.1381,308.4995)" />
  <rect
     style="fill:#ccccff;fill-opacity:1.0000000;fill-rule:evenodd;stroke:none;stroke-width:1.0000000pt;stroke-linecap:butt;stroke-linejoin:miter;stroke-opacity:1.0000000;"
     id="rect5310"
     width="71.751968"
     height="58.907482"
     x="52.480316"
     y="338.70078" />
  <rect
     style="fill:#ccccff;fill-opacity:1.0000000;fill-rule:evenodd;stroke:none;stroke-width:1.0000000pt;stroke-linecap:butt;stroke-linejoin:miter;stroke-opacity:1.0000000;"
     id="rect5311"
     width="71.751968"
     height="58.907482"
     x="169.40945"
     y="538.45471" />
  <rect
     style="fill:#ccccff;fill-opacity:1.0000000;fill-rule:evenodd;stroke:none;stroke-width:1.0000000pt;stroke-linecap:butt;stroke-linejoin:miter;stroke-opacity:1.0000000;"
     id="rect5312"
     width="71.751968"
     height="58.907482"
     x="950.70868"
     y="491.94882" />
  <rect
     style="fill:#ccccff;fill-opacity:1.0000000;fill-rule:evenodd;stroke:none;stroke-width:1.0000000pt;stroke-linecap:butt;stroke-linejoin:miter;stroke-opacity:1.0000000;"
     id="rect4680"
     width="71.751968"
     height="58.907482"
     x="950.70868"
     y="491.94882" />
  <path
     style="fill:#ccccff;fill-opacity:1.0000000;fill-rule:evenodd;stroke:#ccccff;stroke-width:3.9625001;stroke-linecap:butt;stroke-linejoin:miter;stroke-miterlimit:4.0000000;stroke-opacity:1.0000000;"
     d="M 599.87244,367.74117 C 698.87579,266.13667 698.87579,266.13667 698.87579,266.13667 L 699.83610,267.05502"
     id="path977" />
  <path
     style="fill:#ccccff;fill-opacity:1.0000000;fill-rule:evenodd;stroke:#ccccff;stroke-width:4.6641793;stroke-linecap:butt;stroke-linejoin:miter;stroke-miterlimit:4.0000000;stroke-opacity:1.0000000;"
     d="M 575.70056,354.89123 C 515.83622,169.29046 515.83622,169.29046 515.83622,169.29046 L 517.05707,168.71302"
     id="path978" />
  <path
     sodipodi:type="arc"
     style="fill:#ccccff;fill-opacity:1.0000000;fill-rule:evenodd;stroke:none;stroke-width:1.0000000pt;stroke-linecap:butt;stroke-linejoin:miter;stroke-opacity:1.0000000;"
     id="path979"
     sodipodi:cx="606.34845"
     sodipodi:cy="235.18701"
     sodipodi:rx="66.879921"
     sodipodi:ry="31.889763"
     d="M 673.22837 235.18701 A 66.879921 31.889763 0 1 0 539.46853,235.18701 A 66.879921 31.889763 0 1 0 673.22837 235.18701 z"
     transform="matrix(-0.734883,-1.781713e-2,1.767335e-2,-0.728953,1027.247,552.8645)" />
  <path
     sodipodi:type="arc"
     style="fill:#ccccff;fill-opacity:1.0000000;fill-rule:evenodd;stroke:none;stroke-width:1.0000000pt;stroke-linecap:butt;stroke-linejoin:miter;stroke-opacity:1.0000000;"
     id="path981"
     sodipodi:cx="606.34845"
     sodipodi:cy="235.18701"
     sodipodi:rx="66.879921"
     sodipodi:ry="31.889763"
     d="M 673.22837 235.18701 A 66.879921 31.889763 0 1 0 539.46853,235.18701 A 66.879921 31.889763 0 1 0 673.22837 235.18701 z"
     transform="matrix(-0.734883,-1.781713e-2,1.767335e-2,-0.728953,952.3248,326.2035)" />
  <path
     style="fill:#ccccff;fill-opacity:1.0000000;fill-rule:evenodd;stroke:#ccccff;stroke-width:4.7325277;stroke-linecap:butt;stroke-linejoin:miter;stroke-miterlimit:4.0000000;stroke-opacity:1.0000000;"
     d="M 362.94022,219.22908 C 510.89071,139.09854 510.89071,139.09854 510.89071,139.09854 L 511.62980,140.51554"
     id="path983" />
  <path
     sodipodi:type="arc"
     style="fill:#ccccff;fill-opacity:1.0000000;fill-rule:evenodd;stroke:none;stroke-width:1.0000000pt;stroke-linecap:butt;stroke-linejoin:miter;stroke-opacity:1.0000000;"
     id="path984"
     sodipodi:cx="606.34845"
     sodipodi:cy="235.18701"
     sodipodi:rx="66.879921"
     sodipodi:ry="31.889763"
     d="M 673.22837 235.18701 A 66.879921 31.889763 0 1 0 539.46853,235.18701 A 66.879921 31.889763 0 1 0 673.22837 235.18701 z"
     transform="matrix(-0.734464,-3.055464e-2,3.030807e-2,-0.728537,796.7793,409.5768)" />
  <path
     style="fill:#ccccff;fill-opacity:1.0000000;fill-rule:evenodd;stroke:#ccccff;stroke-width:4.7325277;stroke-linecap:butt;stroke-linejoin:miter;stroke-miterlimit:4.0000000;stroke-opacity:1.0000000;"
     d="M 212.59843,305.59719 C 360.54892,225.46665 360.54892,225.46665 360.54892,225.46665 L 361.28801,226.88365"
     id="path988" />
  <path
     style="fill:#ccccff;fill-opacity:1.0000000;fill-rule:evenodd;stroke:#ccccff;stroke-width:3.9625001;stroke-linecap:butt;stroke-linejoin:miter;stroke-miterlimit:4.0000000;stroke-opacity:1.0000000;"
     d="M 322.68906,455.62992 C 427.33748,551.41010 427.33748,551.41010 427.33748,551.41010 L 428.24374,550.43837"
     id="path989" />
  <rect
     style="fill:#ccccff;fill-opacity:1.0000000;fill-rule:evenodd;stroke:none;stroke-width:1.0000000pt;stroke-linecap:butt;stroke-linejoin:miter;stroke-opacity:1.0000000;"
     id="rect990"
     width="71.751968"
     height="58.907482"
     x="-465.27557"
     y="536.47345"
     transform="scale(-1.000000,1.000000)" />
  <path
     style="fill:#ccccff;fill-opacity:1.0000000;fill-rule:evenodd;stroke:#ccccff;stroke-width:3.9625001;stroke-linecap:butt;stroke-linejoin:miter;stroke-miterlimit:4.0000000;stroke-opacity:1.0000000;"
     d="M 717.52662,480.19975 C 715.52220,622.04867 715.52220,622.04867 715.52220,622.04867 L 714.19347,622.04235"
     id="path991" />
  <rect
     style="fill:#ccccff;fill-opacity:1.0000000;fill-rule:evenodd;stroke:none;stroke-width:1.0000000pt;stroke-linecap:butt;stroke-linejoin:miter;stroke-opacity:1.0000000;"
     id="rect992"
     width="71.751968"
     height="58.907482"
     x="683.18896"
     y="609.32086" />
  <path
     style="fill:#ccccff;fill-opacity:1.0000000;fill-rule:evenodd;stroke:#ccccff;stroke-width:3.9625001;stroke-linecap:butt;stroke-linejoin:miter;stroke-miterlimit:4.0000000;stroke-opacity:1.0000000;"
     d="M 590.17660,373.90053 C 588.17218,515.74945 588.17218,515.74945 588.17218,515.74945 L 586.84345,515.74313"
     id="path993" />
  <rect
     style="fill:#ccccff;fill-opacity:1.0000000;fill-rule:evenodd;stroke:none;stroke-width:1.0000000pt;stroke-linecap:butt;stroke-linejoin:miter;stroke-opacity:1.0000000;"
     id="rect994"
     width="71.751968"
     height="58.907482"
     x="555.83893"
     y="503.02164" />
  <text
     xml:space="preserve"
     style="font-size:32.000000;font-style:normal;font-variant:normal;font-weight:normal;font-stretch:normal;fill:#ccccff;fill-opacity:1.0000000;stroke:none;stroke-width:1.0000000pt;stroke-linecap:butt;stroke-linejoin:miter;stroke-opacity:1.0000000;font-family:Bitstream Vera Sans;text-anchor:start;writing-mode:lr;"
     x="411.54712"
     y="702.00513"
     id="text5326"
     sodipodi:linespacing="100%"><tspan
       id="tspan5327">15 Triples</tspan></text>
  <path
     style="fill:#000000;fill-opacity:1.0000000;fill-rule:nonzero;stroke:#000000;stroke-width:7.6250000;stroke-linecap:butt;stroke-linejoin:miter;stroke-opacity:1.0000000;stroke-miterlimit:4.0000000;stroke-dasharray:7.6250000,7.6250000;stroke-dashoffset:0.0000000;"
     id="path1625"
     d="M 479.31388,86.691002 C 484.77683,91.075574 480.12926,87.848330 474.21608,87.118843 C 452.79120,84.886587 430.98402,84.664212 409.46417,85.048308 C 391.16481,85.684946 374.40407,88.604330 357.41924,95.599737 C 343.40443,101.76318 331.13437,109.52794 320.21696,120.28425 C 309.04026,131.82317 299.03995,144.40780 289.02491,156.94914 C 282.49181,165.15802 274.49171,173.52453 270.69614,183.47157 C 268.15349,191.58707 269.23840,199.92674 271.16319,208.05736 C 274.35139,220.34485 278.75688,232.28621 284.16460,243.76522 C 290.05668,255.67027 297.06306,266.45768 305.79861,276.47823 C 316.57518,288.25561 328.88900,297.63336 342.79135,305.44249 C 356.47700,312.84080 370.89109,318.49524 385.08796,324.80138 C 403.67070,333.14025 421.51311,342.84223 437.65833,355.31504 C 452.20911,367.18686 466.00325,380.16692 477.65839,394.92846 C 485.97064,406.01277 493.34851,417.83410 495.87531,431.63637 C 497.22599,441.50623 496.26184,451.29980 496.14879,461.20256 C 496.14197,470.85774 497.80951,480.18588 500.18454,489.52099 C 503.56126,502.53034 507.73148,515.31217 511.35848,528.25170 C 513.48415,536.01593 515.27335,543.77599 515.97266,551.80418 C 516.53889,557.42083 517.47204,562.76260 519.40643,568.08708 C 522.40819,575.93137 526.30735,583.37315 530.75024,590.49106 C 534.79442,596.72252 539.37268,602.67133 546.06117,606.20922 C 553.92000,609.94323 562.64197,610.86202 571.24084,611.09032 C 580.46811,611.15962 589.49768,610.25680 598.56059,608.54561 C 606.66745,606.94254 613.64088,604.84887 620.87533,600.79239 C 629.05358,595.93266 636.71496,590.27210 643.41678,583.50244 C 648.66048,577.84905 652.14452,571.38228 655.15897,564.33267 C 658.57082,555.88238 661.18871,547.33990 662.29551,538.27222 C 663.10176,530.01528 662.91482,522.19522 660.44811,514.23592 C 657.69123,506.26953 653.71121,498.69830 649.39512,491.47486 C 645.29776,484.87164 640.55196,478.77634 635.80149,472.64011 C 629.12516,463.94911 624.97048,454.81499 623.10538,443.98251 C 621.37713,431.71258 621.71539,419.73700 625.90530,407.98491 C 630.41001,396.90099 637.62655,388.20902 647.11547,381.00102 C 657.51344,373.74532 669.05162,369.49879 681.37730,366.77216 C 692.84528,364.45549 704.48566,363.55938 716.03174,361.77230 C 722.78462,360.66753 729.19934,359.12074 735.46972,356.35290 C 744.88811,352.00394 752.63407,346.34879 759.44525,338.49178 C 771.87476,323.14380 780.43673,305.09444 787.55351,286.79117 C 794.55227,267.73003 800.34257,247.82620 800.23833,227.35348 C 799.63154,213.71354 795.43724,201.06582 789.11356,189.03994 C 781.76323,175.76114 772.85672,163.49611 763.02913,151.94818 C 751.48088,138.67040 739.03990,125.97834 725.59159,114.61769 C 713.38516,104.73009 700.26689,95.530496 685.18759,90.669138 C 674.39921,87.675622 663.67351,88.461077 652.64086,89.413611 C 635.89525,90.907804 619.20560,92.122955 602.38487,92.240312 C 589.16842,92.242257 575.96314,91.772362 562.75409,91.385945 C 553.36736,91.118868 543.96772,91.175116 534.60568,90.373716 C 525.84173,89.556451 517.12145,88.395382 508.36610,87.507180 C 502.51029,86.956990 496.67726,86.732741 490.79741,86.847807 C 489.24193,86.885415 487.68684,86.931646 486.13172,86.981820 L 485.04266,71.754797 C 486.75786,71.699831 488.47297,71.651191 490.18864,71.613407 C 497.44963,71.492840 504.65397,71.835712 511.87789,72.576891 C 520.40542,73.511201 528.89843,74.642551 537.44449,75.412325 C 546.24067,76.159412 555.07829,76.109193 563.89576,76.431891 C 576.68035,76.934480 589.45676,77.480709 602.25311,77.561101 C 618.15896,77.547310 633.87998,76.348057 649.70024,74.805526 C 665.19151,73.343113 679.96003,72.984671 695.02508,77.488181 C 712.59971,83.552038 727.85839,94.128196 742.18497,105.77982 C 756.33908,117.71681 769.24482,131.01339 781.56680,144.81526 C 792.11004,157.06655 801.39326,170.12603 809.27196,184.24747 C 816.48619,197.81810 821.23954,211.99392 821.44138,227.46561 C 820.86164,249.10261 814.42839,269.95912 807.11040,290.15882 C 799.79222,309.54461 791.12812,329.25419 778.27842,345.68249 C 769.82429,355.81126 759.84050,363.11266 747.99555,368.82316 C 739.30404,372.81424 730.31898,374.99435 720.88951,376.42956 C 710.02696,377.99500 699.06232,378.72301 688.29204,380.90493 C 679.45148,382.83415 671.22294,385.84303 663.69260,390.91600 C 656.33117,396.37122 650.75314,402.96859 647.18271,411.44476 C 643.48994,421.47701 643.17534,431.73993 644.73399,442.24691 C 646.40164,451.21740 649.98838,458.55347 655.55963,465.71980 C 660.70560,472.28016 665.71306,478.85305 670.04741,485.99096 C 674.73088,494.00432 679.13321,502.40956 682.16826,511.19780 C 685.09179,520.56197 685.18160,529.78946 684.18452,539.48091 C 682.94668,549.50166 680.14961,558.96259 676.52086,568.36021 C 672.93452,577.06707 668.39715,584.94426 661.88001,591.79847 C 653.88657,599.73305 644.83015,606.34751 635.18353,612.12994 C 625.35213,617.76399 615.64428,620.86011 604.57890,623.00031 C 593.20026,625.11435 581.84790,626.15219 570.27075,625.99438 C 557.02265,625.57946 543.93783,623.67933 531.93113,617.79821 C 522.60739,612.59641 515.97917,605.09716 510.28479,596.19307 C 505.46567,588.36713 501.22151,580.22690 497.76859,571.70474 C 495.39855,565.45829 494.08907,559.25781 493.49088,552.62029 C 492.94257,545.22408 491.66362,538.01723 489.93303,530.80473 C 486.67383,517.74518 482.55115,504.94454 478.74470,492.03932 C 476.01791,481.85585 474.04303,471.63778 474.05106,461.06267 C 474.20417,451.81060 475.32154,442.61688 474.10906,433.38755 C 472.03526,421.46434 465.84748,411.21592 458.73971,401.60022 C 447.97263,387.77658 435.20692,375.64331 421.56752,364.68614 C 406.74705,353.25679 390.48448,344.37892 373.37030,336.87845 C 358.28849,330.42293 343.10145,324.50577 328.74248,316.50524 C 313.29374,307.55669 299.33028,296.96117 287.25107,283.77517 C 277.62708,272.81726 269.94584,261.21693 263.58020,248.10338 C 257.91597,235.96532 253.25429,223.36661 249.61614,210.47384 C 246.94805,200.23559 245.97252,189.90812 249.28210,179.70103 C 253.76863,168.44828 262.55240,159.34551 270.11700,150.09017 C 280.58411,137.25199 290.93417,124.29007 302.33927,112.26138 C 314.98834,99.400607 329.74181,90.494745 346.22333,83.322422 C 366.71261,74.956448 386.97797,71.309313 409.04789,70.781496 C 431.83848,70.582452 454.74008,71.024057 477.49031,72.445536 C 484.96596,73.062695 492.98788,73.599139 498.59112,78.025029 L 479.31388,86.691002 z " />
  <path
     style="fill:#c80000;fill-opacity:1.0000000;fill-rule:nonzero;stroke:none;stroke-width:1.0000000pt;stroke-linecap:butt;stroke-linejoin:miter;stroke-opacity:1.0000000;"
     id="path2868"
     d="M 454.24467,103.66561 C 452.45657,96.745842 475.09858,122.94786 479.31827,127.01966 C 508.03791,154.13219 537.65763,180.56237 569.00156,204.62714 C 577.76079,211.18437 586.67153,217.49423 595.83759,223.47068 L 582.50771,232.41640 C 573.22580,226.03655 564.15674,219.40439 555.26145,212.49542 C 524.19927,187.58239 494.89605,160.32470 465.11669,133.90846 C 456.97412,126.65818 436.45764,115.21877 433.35375,103.66561 L 454.24467,103.66561 z " />
  <path
     style="fill:#c80000;fill-opacity:1.0000000;fill-rule:nonzero;stroke:none;stroke-width:1.0000000pt;stroke-linecap:butt;stroke-linejoin:miter;stroke-opacity:1.0000000;"
     id="path2869"
     d="M 571.33439,111.97537 C 565.88890,111.54820 562.99220,119.03231 558.70017,122.41081 C 526.75609,148.37008 497.33080,177.46060 468.28091,206.56973 C 466.48464,208.38797 464.68836,210.20621 462.89209,212.02445 L 448.52912,205.45857 C 450.40496,203.66571 452.28079,201.87285 454.15662,200.07999 C 484.07618,171.49174 513.52246,142.34177 544.31757,114.68863 C 552.30315,107.59484 560.16821,98.841504 571.33439,97.965577 L 571.33439,111.97537 z " />
</svg>
