<?xml version="1.0" encoding="utf-8"?>
<!-- Generator: Adobe Illustrator 15.1.0, SVG Export Plug-In . SVG Version: 6.00 Build 0)  -->
<!DOCTYPE svg PUBLIC "-//W3C//DTD SVG 1.1//EN" "http://www.w3.org/Graphics/SVG/1.1/DTD/svg11.dtd">
<svg version="1.1" id="logo_-_color_1_" xmlns="http://www.w3.org/2000/svg" xmlns:xlink="http://www.w3.org/1999/xlink" x="0px"
	 y="0px" width="5649px" height="1409px" viewBox="0 0 5649 1409" enable-background="new 0 0 5649 1409" xml:space="preserve">
<g>
	<g>
		<path fill="#DF283F" d="M359.378,572.027c-4.747-4.826-10.366-7.178-15.847-7.178c-6.988,0-13.75,3.822-18.19,11.222
			l-31.701,52.834l-31.697,52.828c-7.923,13.207-7.923,34.816,0,48.019l31.697,52.83l31.705,52.842
			c4.44,7.391,11.201,11.213,18.187,11.213c5.48,0,11.1-2.352,15.847-7.178c0,0,65.219-66.303,67.307-130.582
			c0.018-1.045,0.052-2.085,0.052-3.133c0-1.049-0.034-2.09-0.052-3.134C424.597,638.33,359.378,572.027,359.378,572.027z"/>
		<path fill="#1C4A87" d="M1308.331,681.733l-31.697-52.828l-31.701-52.834c-4.44-7.397-11.202-11.222-18.19-11.222
			c-5.48,0-11.1,2.352-15.847,7.178c0,0-65.219,66.303-67.307,130.583c-0.018,1.044-0.052,2.085-0.052,3.134
			c0,1.048,0.034,2.088,0.052,3.133c2.088,64.279,67.307,130.582,67.307,130.582c4.747,4.824,10.366,7.178,15.847,7.178
			c6.986,0,13.746-3.822,18.187-11.213l31.705-52.842l31.697-52.83C1316.254,716.549,1316.254,694.94,1308.331,681.733z"/>
		<path fill="#1C4A87" d="M941.937,705.744c0-86.593-70.208-156.801-156.8-156.801s-156.8,70.208-156.8,156.801
			c0,86.592,70.208,156.799,156.8,156.799S941.937,792.336,941.937,705.744z"/>
		<path fill="#128669" d="M1053.937,437.007c1.273,0,2.536-0.07,3.804-0.097c32.344-0.998,62.74-14.289,62.74-14.289
			c14.113-6.16,19.179-22.004,11.256-35.211l-31.696-52.828l-31.7-52.704c-7.924-13.204-27.005-23.878-42.403-23.878h-123.2
			c-15.399,0-22.851,11.372-16.558,25.427C886.179,283.427,954.975,437.007,1053.937,437.007z"/>
		<path fill="#1C4A87" d="M449.793,422.637c0,0,30.396,13.25,62.74,14.249c1.268,0.027,2.53,0.125,3.804,0.125
			c98.962,0,167.758-153.584,167.758-153.584c6.293-14.055-1.158-25.427-16.558-25.427h-123.2
			c-15.398,0-34.479,10.674-42.403,23.878l-31.7,52.768l-31.696,52.796C430.614,400.649,435.68,416.477,449.793,422.637z"/>
		<path fill="#1D8DCD" d="M1120.48,988.883c0,0-30.398-13.268-62.741-14.266c-1.267-0.027-2.529-0.07-3.803-0.07
			c-98.962,0-167.758,153.771-167.758,153.771c-6.293,14.057,1.158,25.683,16.558,25.683h123.2c15.397,0,34.476-10.929,42.4-24.13
			l31.703-52.901l31.696-52.86C1139.659,1010.905,1134.596,995.043,1120.48,988.883z"/>
		<path fill="#1C4A87" d="M516.337,974.607c-1.273,0-2.536,0.007-3.803,0.034c-32.343,0.998-62.741,14.241-62.741,14.241
			c-14.115,6.16-19.179,21.998-11.256,35.201l31.696,52.824l31.703,52.964c7.925,13.201,27.003,24.128,42.4,24.128h123.2
			c15.399,0,22.851-11.628,16.558-25.685C684.095,1128.315,615.299,974.607,516.337,974.607z"/>
	</g>
	<g>
		<path fill="#DF283F" d="M2168.805,461.555c-67.139-65.55-150.101-98.325-248.9-98.325s-181.776,32.775-248.899,98.325
			c-67.139,65.55-100.7,147.25-100.7,245.1c0,97.851,33.562,179.55,100.7,245.101c67.123,65.549,150.1,98.324,248.899,98.324
			s181.762-32.775,248.9-98.324c67.123-65.551,100.7-147.25,100.7-245.101C2269.505,608.805,2235.928,527.105,2168.805,461.555z
			 M2154.555,706.655c0,66.827-22.651,123.663-67.925,170.524c-45.289,46.877-100.863,70.301-166.726,70.301
			c-65.876,0-121.451-23.424-166.725-70.301c-45.288-46.861-67.925-103.697-67.925-170.524c0-66.812,22.637-123.648,67.925-170.525
			c45.273-46.862,100.849-70.3,166.725-70.3c65.862,0,121.437,23.438,166.726,70.3
			C2131.903,583.007,2154.555,639.843,2154.555,706.655z"/>
		<polygon fill="#128669" points="2995.291,386 2794.841,803.051 2594.391,386 2419,386 2419,1050 2531,1050 2531,531.38 
			2762.541,992 2825.24,992 3057,531.38 3057,1050 3169,1050 3169,386 		"/>
		<polygon fill="#1D8DCD" points="3490,945 3490,767 3808,767 3808,667 3490,667 3490,491 3844,491 3844,386 3378,386 3378,1050 
			3856,1050 3856,945 		"/>
		<path fill="#1C4A87" d="M4413.628,808.741c95.623-28.5,143.449-97.505,143.449-207.081c0-75.362-21.85-130.155-65.55-164.355
			S4375.301,386,4273.978,386H4026v664h113V827h147.327l158.65,223h142.5L4413.628,808.741z M4139,488h142.577
			c60.162,0,101.962,7.915,125.4,24.065c23.424,16.149,35.15,45.846,35.15,89.22c0,43.388-11.4,74.771-34.2,94.395
			c-22.8,19.638-65.877,29.32-129.2,29.32H4139V488z"/>
		<path fill="#1C4A87" d="M5292.369,461.555c-67.139-65.55-150.099-98.325-248.9-98.325c-98.799,0-181.775,32.775-248.9,98.325
			c-67.137,65.55-100.698,147.25-100.698,245.1c0,97.851,33.562,179.55,100.698,245.101c67.125,65.549,150.102,98.324,248.9,98.324
			c98.802,0,181.762-32.775,248.9-98.324c67.124-65.551,100.699-147.25,100.699-245.101
			C5393.068,608.805,5359.493,527.105,5292.369,461.555z M5278.12,706.655c0,66.827-22.652,123.663-67.926,170.524
			c-45.287,46.877-100.863,70.301-166.726,70.301c-65.876,0-121.451-23.424-166.724-70.301
			c-45.289-46.861-67.927-103.697-67.927-170.524c0-66.812,22.638-123.648,67.927-170.525c45.272-46.862,100.848-70.3,166.724-70.3
			c65.862,0,121.438,23.438,166.726,70.3C5255.468,583.007,5278.12,639.843,5278.12,706.655z"/>
	</g>
</g>
</svg>
