<?xml version="1.0" encoding="utf-8"?>
<!-- Generator: Adobe Illustrator 15.1.0, SVG Export Plug-In . SVG Version: 6.00 Build 0)  -->
<!DOCTYPE svg PUBLIC "-//W3C//DTD SVG 1.1//EN" "http://www.w3.org/Graphics/SVG/1.1/DTD/svg11.dtd">
<svg version="1.1" id="logo_-_color" xmlns="http://www.w3.org/2000/svg" xmlns:xlink="http://www.w3.org/1999/xlink" x="0px"
	 y="0px" width="4080px" height="1409px" viewBox="0 0 4080 1409" enable-background="new 0 0 4080 1409" xml:space="preserve">
<g>
	<g>
		<path fill="#DF283F" d="M512,705.744c0,70.688-57.312,128-128,128s-128-57.312-128-128c0-70.688,57.312-128,128-128
			S512,635.056,512,705.744z"/>
		<path fill="#1C4A87" d="M1280,705.744c0,70.688-57.312,128-128,128s-128-57.312-128-128c0-70.688,57.312-128,128-128
			S1280,635.056,1280,705.744z"/>
		<path fill="#128669" d="M1088,385.744c0,70.688-57.312,128-128,128s-128-57.312-128-128s57.312-128,128-128
			S1088,315.056,1088,385.744z"/>
		<path fill="#1C4A87" d="M704,385.744c0,70.688-57.312,128-128,128s-128-57.312-128-128s57.312-128,128-128
			S704,315.056,704,385.744z"/>
		<path fill="#1D8DCD" d="M1088,1025.744c0,70.688-57.312,128-128,128s-128-57.312-128-128s57.312-128,128-128
			S1088,955.057,1088,1025.744z"/>
		<path fill="#1C4A87" d="M704,1025.744c0,70.688-57.312,128-128,128s-128-57.312-128-128s57.312-128,128-128
			S704,955.057,704,1025.744z"/>
	</g>
	<g>
		<path fill="#DF283F" d="M2136.805,460.556c-67.139-65.55-150.101-98.325-248.9-98.325c-98.801,0-181.777,32.775-248.9,98.325
			c-67.139,65.55-100.699,147.25-100.699,245.1c0,97.85,33.561,179.549,100.699,245.1c67.123,65.551,150.1,98.324,248.9,98.324
			c98.8,0,181.762-32.773,248.9-98.324c67.123-65.551,100.699-147.25,100.699-245.1
			C2237.504,607.806,2203.928,526.106,2136.805,460.556z M2122.555,705.656c0,66.826-22.652,123.662-67.926,170.525
			c-45.288,46.875-100.863,70.299-166.725,70.299c-65.877,0-121.451-23.424-166.725-70.299
			c-45.289-46.863-67.926-103.699-67.926-170.525c0-66.812,22.637-123.648,67.926-170.525c45.273-46.862,100.848-70.3,166.725-70.3
			c65.861,0,121.437,23.438,166.725,70.3C2099.902,582.008,2122.555,638.844,2122.555,705.656z"/>
		<polygon fill="#128669" points="2963.291,385 2762.84,802.051 2562.391,385 2388,385 2388,1049 2500,1049 2500,530.38 
			2730.541,991 2793.24,991 3025,530.38 3025,1049 3137,1049 3137,385 		"/>
		<polygon fill="#1D8DCD" points="3458,943 3458,766 3776,766 3776,666 3458,666 3458,490 3813,490 3813,385 3346,385 3346,1049 
			3824,1049 3824,943 		"/>
	</g>
</g>
</svg>
