<?xml version="1.0" encoding="utf-8"?>
<!-- Generator: Adobe Illustrator 15.1.0, SVG Export Plug-In . SVG Version: 6.00 Build 0)  -->
<!DOCTYPE svg PUBLIC "-//W3C//DTD SVG 1.1//EN" "http://www.w3.org/Graphics/SVG/1.1/DTD/svg11.dtd">
<svg version="1.1" id="logo_-_color_1_" xmlns="http://www.w3.org/2000/svg" xmlns:xlink="http://www.w3.org/1999/xlink" x="0px"
	 y="0px" width="4722px" height="1409px" viewBox="0 0 4722 1409" enable-background="new 0 0 4722 1409" xml:space="preserve">
<g>
	<g>
		<path fill="#1C4A87" d="M1715.175,722.799c-34.526-29.761-85.826-52.873-153.899-69.349
			c-68.089-16.462-112.575-31.825-133.476-46.075c-20.899-14.25-31.35-33.725-31.35-58.425c0-24.7,9.812-44.799,29.45-60.325
			c19.623-15.512,45.911-23.275,78.85-23.275c67.123,0,127.924,20.276,182.4,60.8l62.699-89.3
			c-72.199-50.023-153.276-75.05-243.199-75.05c-66.5,0-120.977,17.902-163.4,53.675c-42.438,35.788-63.65,83.125-63.65,142.025
			s19.624,103.238,58.9,133c19.623,15.838,42.111,28.663,67.45,38.475c25.323,9.826,62.373,20.588,111.149,32.3
			c48.762,11.727,83.125,24.7,103.075,38.95s29.925,34.199,29.925,59.85s-10.613,46.238-31.824,61.75
			c-21.227,15.527-49.875,23.275-85.976,23.275c-72.2,0-141.876-29.123-209-87.4L1253,942.25
			c80.424,71.576,172.573,107.35,276.45,107.35c70.923,0,128.25-18.051,171.95-54.15c43.699-36.1,65.55-83.125,65.55-141.074
			C1766.95,796.424,1749.687,752.576,1715.175,722.799z"/>
		<path fill="#1C4A87" d="M2316.037,920.875c-27.876,12.988-61.126,19.475-99.75,19.475c-62.076,0-115.751-22.637-161.024-67.926
			c-45.288-45.273-67.925-101.649-67.925-169.099c0-67.45,22.8-122.862,68.4-166.25c45.6-43.374,101.961-65.075,169.1-65.075
			c38,0,71.086,6.026,99.275,18.05c28.173,12.039,58.098,33.25,89.774,63.65l71.25-77.9c-69.038-76-155.013-114-257.925-114
			c-102.927,0-188.1,32.938-255.551,98.8c-67.449,65.876-101.174,148.2-101.174,247c0,98.8,33.086,180.5,99.274,245.1
			c66.173,64.6,149.462,96.9,249.851,96.9c100.373,0,185.725-38.95,256.024-116.85l-72.2-74.101
			C2373.037,887.149,2343.899,907.9,2316.037,920.875z"/>
		<rect x="2601" y="386" fill="#1C4A87" width="112" height="664"/>
		<polyline fill="#1C4A87" points="3356,386 2914,386 2914,1050 3026,1050 3026,776 3340,776 3340,672 3026,672 3026,490 3356,490 
					"/>
		<rect x="3504" y="386" fill="#1C4A87" width="112" height="664"/>
		<path fill="#DF283F" d="M4364.862,461.075c-67.138-65.55-150.101-98.325-248.899-98.325c-98.801,0-181.777,32.775-248.9,98.325
			c-67.139,65.55-100.7,147.25-100.7,245.1c0,97.851,33.562,179.55,100.7,245.101c67.123,65.549,150.1,98.324,248.9,98.324
			c98.799,0,181.762-32.775,248.899-98.324c67.124-65.551,100.7-147.25,100.7-245.101
			C4465.562,608.325,4431.986,526.625,4364.862,461.075z M4350.612,706.175c0,66.827-22.651,123.663-67.925,170.524
			C4237.398,923.576,4181.824,947,4115.963,947c-65.877,0-121.452-23.424-166.726-70.301
			c-45.288-46.861-67.925-103.697-67.925-170.524c0-66.812,22.637-123.648,67.925-170.525c45.273-46.862,100.849-70.3,166.726-70.3
			c65.861,0,121.436,23.438,166.725,70.3C4327.961,582.526,4350.612,639.363,4350.612,706.175z"/>
	</g>
	<g>
		<g>
			<path fill="#DF283F" d="M969.053,474.769c8.356-4.776,8.356-12.59,0-17.366l-333.722-190.72c-8.356-4.776-22.031-4.776-30.388,0
				L271.194,457.403c-8.357,4.775-8.357,12.59,0,17.365l333.748,190.721c8.357,4.775,22.032,4.775,30.388,0L969.053,474.769z"/>
		</g>
		<g>
			<path fill="#128669" d="M650.398,726.822c-8.357,4.775-18.585,10.619-22.728,12.988s-10.923,2.369-15.066,0
				s-14.371-8.213-22.729-12.987L293.344,557.427c-8.357-4.774-11.228-1.878-6.377,6.436l335.427,575.021
				c4.85,8.313,15.655,11.208,24.011,6.432l342.172-195.584c8.356-4.776,11.226-15.487,6.376-23.801l-164.42-281.869
				c-4.85-8.314-15.655-11.209-24.013-6.435L650.398,726.822z"/>
		</g>
		<g>
			<path fill="#1D8DCD" d="M271.194,943.521c-8.356,4.775-8.356,12.589,0.001,17.363l250.375,143.037
				c8.357,4.774,11.227,1.879,6.377-6.435L405.201,887.092c-4.85-8.313-15.656-11.208-24.012-6.433L271.194,943.521z"/>
		</g>
	</g>
</g>
</svg>
