<?xml version="1.0" encoding="UTF-8" standalone="no"?>
<!DOCTYPE svg PUBLIC "-//W3C//DTD SVG 20010904//EN"
"http://www.w3.org/TR/2001/REC-SVG-20010904/DTD/svg10.dtd">
<!-- Created with Inkscape (http://www.inkscape.org/) -->
<svg
   width="210mm"
   height="297mm"
   id="svg1"
   sodipodi:version="0.32"
   inkscape:version="0.40"
   sodipodi:docbase="/home/josh/code/omero/docs"
   sodipodi:docname="block-diagram.svg"
   xmlns="http://www.w3.org/2000/svg"
   xmlns:cc="http://web.resource.org/cc/"
   xmlns:inkscape="http://www.inkscape.org/namespaces/inkscape"
   xmlns:sodipodi="http://sodipodi.sourceforge.net/DTD/sodipodi-0.dtd"
   xmlns:rdf="http://www.w3.org/1999/02/22-rdf-syntax-ns#"
   xmlns:xml="http://www.w3.org/XML/1998/namespace"
   xmlns:dc="http://purl.org/dc/elements/1.1/"
   xmlns:xlink="http://www.w3.org/1999/xlink">
  <defs
     id="defs3" />
  <sodipodi:namedview
     id="base"
     pagecolor="#ffffff"
     bordercolor="#666666"
     borderopacity="1.0"
     inkscape:pageopacity="0.0"
     inkscape:pageshadow="2"
     inkscape:zoom="3.6250038"
     inkscape:cx="312.83741"
     inkscape:cy="554.96406"
     inkscape:current-layer="layer1"
     inkscape:window-width="1280"
     inkscape:window-height="948"
     inkscape:window-x="0"
     inkscape:window-y="26" />
  <metadata
     id="metadata4">
    <rdf:RDF
       id="RDF5">
      <cc:Work
         rdf:about=""
         id="Work6">
        <dc:format
           id="format7">image/svg+xml</dc:format>
        <dc:type
           id="type9"
           rdf:resource="http://purl.org/dc/dcmitype/StillImage" />
      </cc:Work>
    </rdf:RDF>
  </metadata>
  <g
     inkscape:label="Layer 1"
     inkscape:groupmode="layer"
     id="layer1">
    <rect
       style="opacity:0.58510637;fill:#999999;fill-opacity:0.28729281;stroke:#000020;stroke-width:0.55458355;stroke-linecap:butt;stroke-linejoin:round;stroke-miterlimit:4.0000000;stroke-opacity:0.20994474"
       id="rect1874"
       width="180.08937"
       height="80.831726"
       x="174.82983"
       y="405.45255" />
    <rect
       style="fill:#ffffff;fill-opacity:1.0000000;stroke:#000000;stroke-width:1.0501041pt;stroke-linecap:butt;stroke-linejoin:miter;stroke-opacity:0.20994474"
       id="rect1488"
       width="104.83504"
       height="73.184906"
       x="392.71414"
       y="238.17380" />
    <text
       xml:space="preserve"
       style="font-size:12.000000;font-style:normal;font-weight:normal;fill:#000000;fill-opacity:1.0000000;stroke:none;stroke-width:1.0000000pt;stroke-linecap:butt;stroke-linejoin:miter;stroke-opacity:1.0000000;font-family:Bitstream Vera Sans"
       x="462.24051"
       y="359.62775"
       id="text1101"
       transform="translate(-31.78745,-83.48709)"><tspan
         sodipodi:role="line"
         id="tspan1102"
         x="462.24051"
         y="359.62775">Tests</tspan></text>
    <g
       id="g1502"
       transform="translate(46.45361,180.8265)">
      <rect
         style="fill:#ffffff;fill-opacity:1.0000000;stroke:#000000;stroke-width:1.2073844pt;stroke-linecap:butt;stroke-linejoin:miter;stroke-opacity:0.20994474"
         id="rect2370"
         width="79.436844"
         height="28.811739"
         x="191.35950"
         y="164.52975" />
      <text
         xml:space="preserve"
         style="font-size:12.000000;font-style:normal;font-weight:normal;fill:#000000;fill-opacity:1.0000000;stroke:none;stroke-width:1.0000000pt;stroke-linecap:butt;stroke-linejoin:miter;stroke-opacity:1.0000000;font-family:Bitstream Vera Sans"
         x="467.25125"
         y="274.44522"
         id="text1092"
         transform="translate(-265.3803,-91.12520)"><tspan
           sodipodi:role="line"
           id="tspan1093"
           x="467.25125"
           y="274.44522">OME-JAVA</tspan></text>
    </g>
    <g
       id="g2364"
       transform="translate(157.1632,18.42548)">
      <rect
         style="fill:#ffffff;fill-opacity:1.0000000;stroke:#000000;stroke-width:1.0000000pt;stroke-linecap:butt;stroke-linejoin:miter;stroke-opacity:0.20994474"
         id="rect2356"
         width="54.491768"
         height="28.811739"
         x="143.74553"
         y="261.29205" />
      <text
         xml:space="preserve"
         style="font-size:12.000000;font-style:normal;font-weight:normal;fill:#000000;fill-opacity:1.0000000;stroke:none;stroke-width:1.0000000pt;stroke-linecap:butt;stroke-linejoin:miter;stroke-opacity:1.0000000;font-family:Bitstream Vera Sans"
         x="462.24051"
         y="359.62775"
         id="text2357"
         transform="translate(-311.5998,-79.54545)"><tspan
           sodipodi:role="line"
           id="tspan2358"
           x="462.24051"
           y="359.62775">Shoola</tspan></text>
    </g>
    <g
       id="g2392"
       transform="translate(-83.41288,-26.97331)">
      <rect
         style="fill:#ffffff;fill-opacity:1.0000000;stroke:#000000;stroke-width:1.0000000pt;stroke-linecap:butt;stroke-linejoin:miter;stroke-opacity:0.20994474"
         id="rect2384"
         width="54.491768"
         height="28.811739"
         x="217.34073"
         y="347.10092"
         transform="translate(269.0140,45.72297)" />
      <text
         xml:space="preserve"
         style="font-size:12.000000;font-style:normal;font-weight:normal;fill:#000000;fill-opacity:1.0000000;stroke:none;stroke-width:1.0000000pt;stroke-linecap:butt;stroke-linejoin:miter;stroke-opacity:1.0000000;font-family:Bitstream Vera Sans"
         x="320.06085"
         y="283.21402"
         id="text1083"
         transform="translate(177.2548,127.7738)"><tspan
           sodipodi:role="line"
           id="tspan1084"
           x="320.06085"
           y="283.21402">Client</tspan></text>
    </g>
    <g
       id="g2432"
       transform="translate(-14.95938,-77.70701)">
      <rect
         style="fill:#ffffff;fill-opacity:1.0000000;stroke:#000000;stroke-width:1.0000000pt;stroke-linecap:butt;stroke-linejoin:miter;stroke-opacity:0.20994474"
         id="rect2422"
         width="54.491768"
         height="28.811739"
         x="217.34073"
         y="347.10092"
         transform="translate(268.3876,96.45668)" />
      <text
         xml:space="preserve"
         style="font-size:12.000000;font-style:normal;font-weight:normal;fill:#000000;fill-opacity:1.0000000;stroke:none;stroke-width:1.0000000pt;stroke-linecap:butt;stroke-linejoin:miter;stroke-opacity:1.0000000;font-family:Bitstream Vera Sans"
         x="471.00931"
         y="309.52039"
         id="text1095"
         transform="translate(21.29561,152.8274)"><tspan
           sodipodi:role="line"
           id="tspan1096"
           x="471.00931"
           y="309.52039">Server</tspan></text>
    </g>
    <g
       id="g2446"
       transform="translate(-19.37717,-7.774808)">
      <rect
         style="fill:#ffffff;fill-opacity:1.0000000;stroke:#000000;stroke-width:1.0000000pt;stroke-linecap:butt;stroke-linejoin:miter;stroke-opacity:0.20994474"
         id="rect2438"
         width="54.491768"
         height="28.811739"
         x="217.34073"
         y="347.10092"
         transform="translate(263.3769,106.4782)" />
      <text
         xml:space="preserve"
         style="font-size:12.000000;font-style:normal;font-weight:normal;fill:#000000;fill-opacity:1.0000000;stroke:none;stroke-width:1.0000000pt;stroke-linecap:butt;stroke-linejoin:miter;stroke-opacity:1.0000000;font-family:Bitstream Vera Sans"
         x="474.14102"
         y="351.48532"
         id="text1098"
         transform="translate(15.65857,120.8840)"><tspan
           sodipodi:role="line"
           id="tspan1099"
           x="474.14102"
           y="351.48532">Model</tspan></text>
    </g>
    <g
       id="g2460"
       transform="translate(40.21569,-49.17982)">
      <rect
         style="fill:#ffffff;fill-opacity:1.0000000;stroke:#000000;stroke-width:1.1465696pt;stroke-linecap:butt;stroke-linejoin:miter;stroke-opacity:0.20994474"
         id="rect2452"
         width="71.636070"
         height="28.811739"
         x="150.83195"
         y="437.29416"
         transform="translate(326.3242,25.68005)" />
      <text
         xml:space="preserve"
         style="font-size:12.000000;font-style:normal;font-weight:normal;fill:#000000;fill-opacity:1.0000000;stroke:none;stroke-width:1.0000000pt;stroke-linecap:butt;stroke-linejoin:miter;stroke-opacity:1.0000000;font-family:Bitstream Vera Sans"
         x="102.72011"
         y="322.04724"
         id="text1073"
         transform="translate(380.1898,157.8383)"><tspan
           sodipodi:role="line"
           id="tspan1074"
           x="102.72011"
           y="322.04724">Hibernate</tspan></text>
    </g>
    <g
       id="g1586"
       transform="translate(-63.12244,-82.05918)">
      <rect
         style="fill:#ffffff;fill-opacity:1.0000000;stroke:#000000;stroke-width:1.0180955pt;stroke-linecap:butt;stroke-linejoin:miter;stroke-opacity:0.20994474"
         id="rect1490"
         width="56.481731"
         height="28.811739"
         x="281.10974"
         y="366.76004" />
      <text
         xml:space="preserve"
         style="font-size:12.000000;font-style:normal;font-weight:normal;fill:#000000;fill-opacity:1.0000000;stroke:none;stroke-width:1.0000000pt;stroke-linecap:butt;stroke-linejoin:miter;stroke-opacity:1.0000000;font-family:Bitstream Vera Sans"
         x="462.24051"
         y="359.62775"
         id="text1491"
         transform="translate(-176.5782,25.92260)"><tspan
           sodipodi:role="line"
           id="tspan1492"
           x="462.24051"
           y="359.62775">...Other</tspan></text>
    </g>
    <g
       id="g1132"
       transform="translate(31.56122,42.52453)">
      <rect
         style="fill:#ffffff;fill-opacity:1.0000000;stroke:#000000;stroke-width:1.2073844pt;stroke-linecap:butt;stroke-linejoin:miter;stroke-opacity:0.20994474"
         id="rect1124"
         width="79.436844"
         height="28.811739"
         x="191.35950"
         y="164.52975"
         transform="translate(116.0955,120.2761)" />
      <text
         xml:space="preserve"
         style="font-size:12.000000;font-style:normal;font-weight:normal;fill:#000000;fill-opacity:1.0000000;stroke:none;stroke-width:1.0000000pt;stroke-linecap:butt;stroke-linejoin:miter;stroke-opacity:1.0000000;font-family:Bitstream Vera Sans"
         x="467.25125"
         y="274.44522"
         id="text1125"
         transform="translate(-149.2848,29.15090)"><tspan
           sodipodi:role="line"
           id="tspan1126"
           x="467.25125"
           y="274.44522"> Adapter</tspan></text>
    </g>
    <path
       style="fill:#000000;fill-opacity:1.0000000;fill-rule:nonzero;stroke:none;stroke-width:1.0000000pt;stroke-linecap:butt;stroke-linejoin:miter;stroke-opacity:1.0000000"
       id="path1231"
       d="M 233.21750,307.81610 C 234.47104,311.29329 236.03700,314.65351 237.58517,318.00620 C 242.45852,328.55499 247.83537,338.84621 253.42904,349.00101 C 255.28123,352.36308 256.13720,352.84837 253.21637,355.58703 C 253.04720,355.74566 249.65816,352.25124 249.32637,351.90791 C 248.86186,351.45034 243.02179,345.31782 243.03782,345.28721 C 243.54768,344.31504 244.12930,343.39758 244.67503,342.45277 C 246.29752,343.60346 247.81777,344.95905 249.34409,346.27738 C 250.44730,347.23310 251.53243,348.21693 252.56266,349.27419 C 254.06294,350.82154 253.71893,349.50485 251.54763,352.56339 C 251.53306,351.20047 251.28233,349.43088 251.18361,347.93746 C 251.07342,346.21661 250.99529,344.49186 251.16141,342.80884 C 251.17862,342.35242 251.35002,342.00370 251.53812,341.64455 C 251.55286,341.61425 251.56658,341.58327 251.58080,341.55264 L 253.65511,339.15082 C 253.65105,339.19216 253.65565,339.23565 253.64295,339.27483 C 253.47114,339.62849 253.27583,340.00014 253.19543,340.41653 C 252.94604,342.08698 253.00890,343.82256 253.10943,345.55135 C 253.20459,347.10447 253.26598,348.71337 253.70099,350.24181 C 251.80139,352.92780 252.34366,353.59319 250.78018,351.92649 C 249.78286,350.84629 248.73056,349.83401 247.63970,348.87776 C 246.33938,347.73842 244.51541,346.09194 243.32562,345.47446 C 243.85536,344.55194 244.36716,343.61501 244.91485,342.70691 C 245.09197,342.41325 245.31968,343.35642 245.56462,343.64155 C 247.29563,345.65669 249.16232,347.52318 250.98051,349.43628 C 251.98631,350.45439 252.99229,351.52886 254.11166,352.38474 C 254.32852,352.55055 254.92056,352.56609 254.80281,352.79632 C 252.49568,357.30663 253.63013,354.31753 251.78927,351.27154 C 246.53637,340.89998 241.07476,330.63954 236.00670,320.16788 C 234.41229,316.92625 232.83817,313.67436 231.30345,310.40269 L 233.21750,307.81610 z " />
    <path
       style="fill:#000000;fill-opacity:1.0000000;fill-rule:nonzero;stroke:none;stroke-width:1.0000000pt;stroke-linecap:butt;stroke-linejoin:miter;stroke-opacity:1.0000000"
       id="path1232"
       d="M 315.68766,305.55885 C 313.40792,308.46831 311.39325,311.58029 309.37552,314.67320 C 303.02818,324.40654 297.16657,334.42958 291.53572,344.56381 C 289.67157,347.91926 289.71524,348.90226 285.84324,347.88292 C 285.61897,347.82388 286.77868,343.09614 286.89326,342.63263 C 287.03409,341.99600 289.12646,333.79013 289.16091,333.78745 C 290.25539,333.70285 291.34167,333.70812 292.43204,333.66846 C 292.31927,335.65437 291.97859,337.66253 291.67269,339.65604 C 291.44919,341.09844 291.19228,342.54046 290.84397,343.97498 C 290.33022,346.06812 291.26292,345.07710 287.51815,344.86269 C 288.66504,344.12621 290.03096,342.97358 291.24370,342.09646 C 292.64301,341.08879 294.06266,340.10620 295.57673,339.35272 C 295.97254,339.12480 296.35903,339.08473 296.76324,339.05325 C 296.79673,339.04964 296.83027,339.04480 296.86377,339.04057 L 300.00065,339.52174 C 299.96347,339.54027 299.92907,339.56727 299.88913,339.57733 C 299.49823,339.61968 299.07961,339.65168 298.68414,339.80481 C 297.13647,340.48107 295.69954,341.45647 294.28837,342.46018 C 293.02317,343.36600 291.69277,344.27284 290.62905,345.45346 C 287.34426,345.27129 287.06868,346.08421 287.64995,343.87413 C 288.03517,342.45531 288.33364,341.02598 288.56416,339.59376 C 288.83848,337.88681 289.26423,335.46679 289.15518,334.13075 C 290.21817,334.08938 291.28385,334.02515 292.34416,334.00665 C 292.68705,334.00067 292.00901,334.69471 291.89760,335.05371 C 291.11015,337.59086 290.52071,340.16397 289.86603,342.72076 C 289.53791,344.11378 289.16215,345.53690 289.03181,346.93995 C 289.00657,347.21176 289.30796,347.72158 289.05036,347.74415 C 284.00353,348.18603 287.13856,347.55893 288.74096,344.38102 C 294.73649,334.42030 300.52699,324.34182 306.70553,314.48451 C 308.60461,311.41144 310.52315,308.35009 312.47940,305.31162 L 315.68766,305.55885 z " />
    <path
       style="fill:#000000;fill-opacity:1.0000000;fill-rule:nonzero;stroke:none;stroke-width:1.0000000pt;stroke-linecap:butt;stroke-linejoin:miter;stroke-opacity:1.0000000"
       id="path1233"
       d="M 335.46068,302.93038 C 336.04699,306.57982 336.96199,310.17233 337.86092,313.75412 C 340.69147,325.02420 344.06458,336.13464 347.67606,347.15127 C 348.87198,350.79873 349.62299,351.43447 346.24457,353.58336 C 346.04889,353.70782 343.36740,349.64506 343.10510,349.24610 C 342.73360,348.71026 338.13337,341.60026 338.15481,341.57316 C 338.83626,340.71253 339.57807,339.91897 340.28970,339.09189 C 341.67040,340.52375 342.91260,342.13797 344.16767,343.71672 C 345.07431,344.86061 345.95796,346.02876 346.77403,347.25888 C 347.96101,349.05783 347.86740,347.70016 345.16609,350.30251 C 345.40476,348.96057 345.48687,347.17519 345.66708,345.68940 C 345.87823,343.97800 346.12161,342.26872 346.59726,340.64579 C 346.69889,340.20049 346.93204,339.88966 347.18354,339.57166 C 347.20365,339.54463 347.22288,339.51673 347.24253,339.48927 L 349.72663,337.51423 C 349.71497,337.55410 349.71142,337.59769 349.69166,337.63383 C 349.45719,337.94945 349.19629,338.27839 349.04000,338.67262 C 348.48486,340.26774 348.22447,341.98483 348.00235,343.70224 C 347.80756,345.24603 347.56923,346.83836 347.71297,348.42099 C 345.34779,350.70769 345.75713,351.46217 344.53020,349.53422 C 343.75073,348.28767 342.90461,347.09765 342.01022,345.95553 C 340.94398,344.59462 339.45734,342.63817 338.40284,341.81058 C 339.09461,341.00243 339.77144,340.17678 340.47817,339.38613 C 340.70673,339.13044 340.75541,340.09949 340.94316,340.42513 C 342.27003,342.72657 343.75781,344.90713 345.18929,347.12448 C 345.98862,348.31159 346.77767,349.55412 347.71872,350.60291 C 347.90103,350.80609 348.47990,350.93126 348.32146,351.13562 C 345.21721,355.13929 346.88679,352.41272 345.64333,349.07796 C 342.40693,337.91158 338.94481,326.81566 335.90862,315.58524 C 334.94365,312.10399 334.00050,308.61642 333.09976,305.11672 L 335.46068,302.93038 z " />
    <path
       style="fill:#000000;fill-opacity:1.0000000;fill-rule:nonzero;stroke:none;stroke-width:1.0000000pt;stroke-linecap:butt;stroke-linejoin:miter;stroke-opacity:1.0000000"
       id="path1234"
       d="M 389.91514,347.05128 C 391.28312,350.48506 392.95947,353.79159 394.61780,357.09118 C 399.83775,367.47284 405.55239,377.58039 411.47921,387.54442 C 413.44170,390.84332 414.31327,391.30000 411.48472,394.13387 C 411.32090,394.29801 407.81802,390.91772 407.47503,390.58556 C 406.99563,390.14362 400.95572,384.20782 400.97073,384.17670 C 401.44812,383.18818 401.99904,382.25197 402.51319,381.28961 C 404.17290,382.38594 405.73719,383.69046 407.30632,384.95753 C 408.44057,385.87620 409.55769,386.82356 410.62235,387.84613 C 412.17304,389.34296 411.78563,388.03838 409.71679,391.16713 C 409.65710,389.80544 409.34791,388.04513 409.19980,386.55579 C 409.03269,384.83953 408.89750,383.11831 409.00781,381.43072 C 409.00990,380.97398 409.16966,380.61978 409.34576,380.25459 C 409.35949,380.22383 409.37217,380.19241 409.38537,380.16132 L 411.37902,377.69214 C 411.37634,377.73359 411.38237,377.77690 411.37097,377.81649 C 411.21096,378.17564 411.02807,378.55355 410.96150,378.97237 C 410.76755,380.65017 410.88785,382.38271 411.04556,384.10723 C 411.19209,385.65635 411.30672,387.26233 411.79210,388.77553 C 409.98247,391.52294 410.54647,392.17001 408.92867,390.55599 C 407.89613,389.50941 406.81089,388.53253 405.68897,387.61292 C 404.35163,386.51725 402.47415,384.93206 401.26457,384.35432 C 401.76347,383.41477 402.24397,382.46140 402.76129,381.53567 C 402.92859,381.23630 403.18741,382.17142 403.44165,382.44828 C 405.23844,384.40500 407.16590,386.20867 409.04644,388.06052 C 410.08539,389.04476 411.12640,390.08534 412.27349,390.90369 C 412.49572,391.06222 413.08796,391.05816 412.97789,391.29216 C 410.82136,395.87638 411.85622,392.85136 409.91552,389.86799 C 404.32210,379.67604 398.52376,369.60206 393.11177,359.30394 C 391.41091,356.11688 389.72998,352.91890 388.08778,349.69983 L 389.91514,347.05128 z " />
    <path
       style="fill:#000000;fill-opacity:1.0000000;fill-rule:nonzero;stroke:none;stroke-width:1.0000000pt;stroke-linecap:butt;stroke-linejoin:miter;stroke-opacity:1.0000000"
       id="path1235"
       d="M 428.37952,390.48941 C 428.12756,394.17705 428.20867,397.88336 428.27654,401.57561 C 428.49211,413.19371 429.27227,424.77866 430.30580,436.32599 C 430.64819,440.14920 431.23646,440.93796 427.46040,442.26944 C 427.24170,442.34656 425.54569,437.78367 425.38013,437.33582 C 425.13906,436.73000 422.26110,428.76561 422.28809,428.74404 C 423.14610,428.05929 424.04779,427.45351 424.92764,426.80825 C 425.94979,428.51464 426.79588,430.36745 427.66252,432.18860 C 428.28777,433.50751 428.88517,434.84488 429.40274,436.22737 C 430.15337,438.24769 430.36840,436.90389 427.14973,438.82988 C 427.68494,437.57636 428.16763,435.85550 428.67832,434.44865 C 429.27006,432.82898 429.89270,431.21864 430.72215,429.74482 C 430.92161,429.33392 431.21887,429.08368 431.53561,428.83061 C 431.56129,428.80881 431.58631,428.78597 431.61166,428.76366 L 434.47723,427.39981 C 434.45688,427.43603 434.44358,427.47769 434.41618,427.50844 C 434.11656,427.76304 433.78819,428.02465 433.54700,428.37348 C 432.64638,429.80228 432.00540,431.41638 431.40164,433.03943 C 430.86365,434.49951 430.27230,435.99704 430.05536,437.57131 C 427.23537,439.26560 427.46397,440.09297 426.70352,437.93796 C 426.22531,436.54772 425.66941,435.19752 425.05568,433.88309 C 424.32388,432.31675 423.31683,430.07541 422.47618,429.03129 C 423.33242,428.39999 424.17803,427.74828 425.04488,427.13742 C 425.32522,426.93988 425.15407,427.89494 425.26353,428.25453 C 426.03711,430.79594 426.99471,433.25589 427.88916,435.73898 C 428.40013,437.07579 428.88858,438.46428 429.56882,439.69830 C 429.70061,439.93737 430.23632,440.18988 430.03587,440.35324 C 426.10856,443.55354 428.35012,441.27382 427.89087,437.74453 C 427.25653,426.13592 426.38639,414.54503 425.96154,402.91919 C 425.80665,399.30999 425.67445,395.69957 425.58630,392.08689 L 428.37952,390.48941 z " />
    <path
       style="fill:#000000;fill-opacity:1.0000000;fill-rule:nonzero;stroke:none;stroke-width:1.0000000pt;stroke-linecap:butt;stroke-linejoin:miter;stroke-opacity:1.0000000"
       id="path1237"
       d="M 491.32759,389.88143 C 489.13951,392.86043 487.22268,396.03362 485.30219,399.18783 C 479.26088,409.11402 473.71408,419.31465 468.40139,429.61923 C 466.64259,433.03108 466.71683,434.01224 462.81498,433.11391 C 462.58898,433.06188 463.60098,428.30034 463.70107,427.83348 C 463.82202,427.19277 465.65797,418.92576 465.69232,418.92201 C 466.78364,418.80338 467.86955,418.77484 468.95816,418.70126 C 468.90726,420.68971 468.62925,422.70751 468.38555,424.70957 C 468.20705,426.15823 467.99514,427.60755 467.69165,429.05221 C 467.24330,431.16033 468.14469,430.14076 464.39507,430.04302 C 465.51848,429.27119 466.84787,428.07660 468.03271,427.16216 C 469.39999,426.11143 470.78836,425.08513 472.27825,424.28488 C 472.66677,424.04475 473.05183,423.99267 473.45487,423.94863 C 473.48822,423.94398 473.52159,423.93810 473.55495,423.93283 L 476.70529,424.31612 C 476.66870,424.33580 476.63516,424.36386 476.59555,424.37516 C 476.20616,424.42966 475.78874,424.47467 475.39822,424.64004 C 473.87235,425.36414 472.46647,426.38379 471.08723,427.43094 C 469.85084,428.37570 468.54931,429.32351 467.52285,430.53667 C 464.23399,430.45682 463.98384,431.27794 464.49605,429.05083 C 464.83692,427.62070 465.09075,426.18278 465.27658,424.74408 C 465.49764,423.02942 465.84786,420.59731 465.69728,419.26533 C 466.75847,419.19088 467.82163,419.09352 468.88084,419.04202 C 469.22338,419.02538 468.56727,419.74019 468.46709,420.10247 C 467.75899,422.66290 467.24993,425.25311 466.67514,427.82904 C 466.39055,429.23160 466.05925,430.66573 465.97265,432.07215 C 465.95589,432.34462 466.27299,432.84481 466.01622,432.87538 C 460.98560,433.47413 464.09959,432.74976 465.60230,429.52351 C 471.28490,419.38101 476.75889,409.12718 482.62763,399.08234 C 484.43014,395.95165 486.25246,392.83207 488.11319,389.73418 L 491.32759,389.88143 z " />
    <path
       style="fill:#000000;fill-opacity:1.0000000;fill-rule:nonzero;stroke:none;stroke-width:1.0000000pt;stroke-linecap:butt;stroke-linejoin:miter;stroke-opacity:1.0000000"
       id="path1238"
       d="M 502.69272,387.73906 C 503.74196,391.28325 505.10989,394.72884 506.46050,398.16587 C 510.71226,408.98018 515.48164,419.56662 520.47539,430.02948 C 522.12896,433.49356 522.95527,434.02780 519.88015,436.59199 C 519.70204,436.74051 516.52192,433.05496 516.21064,432.69291 C 515.77352,432.20911 510.29991,425.74739 510.31770,425.71777 C 510.88321,424.77689 511.51719,423.89480 512.11694,422.98332 C 513.66978,424.22640 515.10864,425.66809 516.55572,427.07294 C 517.60149,428.09119 518.62759,429.13645 519.59459,430.25182 C 521.00237,431.88379 520.73550,430.54932 518.39004,433.47644 C 518.45474,432.11498 518.30732,430.33380 518.29560,428.83717 C 518.28566,427.11282 518.30794,425.38644 518.57164,423.71593 C 518.61536,423.26128 518.80675,422.92312 519.01542,422.57551 C 519.03189,422.54613 519.04738,422.51600 519.06336,422.48625 L 521.27381,420.20909 C 521.26736,420.25013 521.26942,420.29381 521.25446,420.33219 C 521.06238,420.67526 520.84579,421.03492 520.74132,421.44594 C 520.39522,423.09906 520.35706,424.83536 520.35691,426.56707 C 520.36160,428.12310 520.32933,429.73284 520.67474,431.28399 C 518.62218,433.85498 519.12484,434.55078 517.66092,432.79599 C 516.72810,431.65963 515.73643,430.58788 514.70302,429.56982 C 513.47114,428.35680 511.74599,426.60705 510.59412,425.92144 C 511.17660,425.03128 511.74201,424.12569 512.34157,423.25098 C 512.53547,422.96811 512.70796,423.92293 512.93590,424.22181 C 514.54682,426.33419 516.30182,428.30607 518.00570,430.32165 C 518.95060,431.39651 519.89240,432.52766 520.96011,433.44718 C 521.16697,433.62531 521.75710,433.67526 521.62616,433.89824 C 519.06069,438.26677 520.36702,435.34869 518.70638,432.20082 C 514.06542,421.54138 509.20963,410.98074 504.75902,400.23212 C 503.35579,396.90327 501.97340,393.56536 500.63151,390.20998 L 502.69272,387.73906 z " />
    <path
       style="fill:#000000;fill-opacity:1.0000000;fill-rule:nonzero;stroke:none;stroke-width:1.0000000pt;stroke-linecap:butt;stroke-linejoin:miter;stroke-opacity:1.0000000"
       id="path1239"
       d="M 465.76551,303.75861 C 466.81475,307.30280 468.18268,310.74839 469.53329,314.18542 C 473.78505,324.99973 478.55443,335.58617 483.54818,346.04903 C 485.20175,349.51311 486.02806,350.04735 482.95294,352.61154 C 482.77483,352.76006 479.59471,349.07451 479.28343,348.71246 C 478.84631,348.22866 473.37270,341.76694 473.39049,341.73732 C 473.95600,340.79644 474.58998,339.91435 475.18973,339.00287 C 476.74257,340.24595 478.18143,341.68764 479.62851,343.09249 C 480.67428,344.11074 481.70038,345.15600 482.66738,346.27137 C 484.07516,347.90334 483.80829,346.56887 481.46283,349.49599 C 481.52753,348.13453 481.38011,346.35335 481.36839,344.85672 C 481.35845,343.13237 481.38073,341.40599 481.64443,339.73548 C 481.68815,339.28083 481.87954,338.94267 482.08821,338.59506 C 482.10468,338.56568 482.12017,338.53555 482.13615,338.50580 L 484.34660,336.22864 C 484.34015,336.26968 484.34221,336.31336 484.32725,336.35174 C 484.13517,336.69481 483.91858,337.05447 483.81411,337.46549 C 483.46801,339.11861 483.42985,340.85491 483.42970,342.58662 C 483.43439,344.14265 483.40212,345.75239 483.74753,347.30354 C 481.69497,349.87453 482.19763,350.57033 480.73371,348.81554 C 479.80089,347.67918 478.80922,346.60743 477.77581,345.58937 C 476.54393,344.37635 474.81878,342.62660 473.66691,341.94099 C 474.24939,341.05083 474.81480,340.14524 475.41436,339.27053 C 475.60826,338.98766 475.78075,339.94248 476.00869,340.24136 C 477.61961,342.35374 479.37461,344.32562 481.07849,346.34120 C 482.02339,347.41606 482.96519,348.54721 484.03290,349.46673 C 484.23976,349.64486 484.82989,349.69481 484.69895,349.91779 C 482.13348,354.28632 483.43981,351.36824 481.77917,348.22037 C 477.13821,337.56093 472.28242,327.00029 467.83181,316.25167 C 466.42858,312.92282 465.04619,309.58491 463.70430,306.22953 L 465.76551,303.75861 z " />
    <path
       style="fill:#000000;fill-opacity:1.0000000;fill-rule:nonzero;stroke:none;stroke-width:1.0000000pt;stroke-linecap:butt;stroke-linejoin:miter;stroke-opacity:1.0000000"
       id="path1240"
       d="M 455.77041,301.44101 C 454.65580,304.96518 453.86045,308.58607 453.05555,312.19015 C 450.52480,323.53132 448.55053,334.97344 446.83136,346.43875 C 446.26236,350.23485 446.64799,351.14010 442.66442,351.54340 C 442.43370,351.56676 441.86175,346.73258 441.80648,346.25832 C 441.71511,345.61273 440.79681,337.19424 440.82813,337.17966 C 441.82343,336.71659 442.84256,336.34057 443.84978,335.92104 C 444.44063,337.82037 444.82584,339.82047 445.23849,341.79464 C 445.53503,343.22381 445.80014,344.66436 445.97704,346.12991 C 446.22999,348.27028 446.75589,347.01511 443.17377,348.12761 C 443.98953,347.03568 444.86448,345.47722 445.69259,344.23052 C 446.64965,342.79611 447.63453,341.37806 448.78820,340.14145 C 449.07894,339.78918 449.42683,339.61612 449.79434,339.44490 C 449.82443,339.42977 449.85413,339.41348 449.88403,339.39777 L 452.99043,338.74827 C 452.96211,338.77866 452.93936,338.81601 452.90548,338.83944 C 452.55426,339.01619 452.17345,339.19297 451.85680,339.47506 C 450.64459,340.65114 449.64099,342.06852 448.67145,343.50338 C 447.80427,344.79537 446.87640,346.11118 446.29427,347.58986 C 443.15422,348.57122 443.18122,349.42917 442.95052,347.15560 C 442.81369,345.69180 442.59194,344.24858 442.30554,342.82648 C 441.96382,341.13173 441.51383,338.71610 440.94316,337.50317 C 441.92413,337.09163 442.89960,336.65775 443.88608,336.26858 C 444.20509,336.14272 443.81352,337.03048 443.83508,337.40573 C 443.98742,340.05791 444.33780,342.67431 444.62135,345.29831 C 444.80262,346.71792 444.94979,348.18245 445.31977,349.54209 C 445.39147,349.80550 445.85250,350.17724 445.61918,350.28871 C 441.04785,352.47243 443.76386,350.78572 444.14999,347.24768 C 446.27154,335.81696 448.15977,324.34786 450.48897,312.94981 C 451.18971,309.40591 451.91279,305.86616 452.67922,302.33462 L 455.77041,301.44101 z " />
    <text
       xml:space="preserve"
       style="font-size:12.000000;font-style:normal;font-weight:normal;fill:#000000;fill-opacity:1.0000000;stroke:none;stroke-width:1.0000000pt;stroke-linecap:butt;stroke-linejoin:miter;stroke-opacity:1.0000000;font-family:Bitstream Vera Sans"
       x="228.90192"
       y="463.66235"
       id="text1242"
       transform="translate(-38.44544,-28.59119)"><tspan
         sodipodi:role="line"
         id="tspan1243"
         x="228.90192"
         y="463.66235">Build Dependencies</tspan></text>
    <path
       style="fill:#000000;fill-opacity:1.0000000;fill-rule:nonzero;stroke:none;stroke-width:1.0000000pt;stroke-linecap:butt;stroke-linejoin:miter;stroke-opacity:1.0000000"
       id="path1245"
       d="M 312.51855,414.96141 C 313.11000,416.77040 313.88109,418.52906 314.64243,420.28335 C 317.03913,425.80307 319.72761,431.20649 322.54256,436.54683 C 323.47467,438.31493 323.94046,438.58761 322.20703,439.89639 C 322.10663,439.97220 320.31401,438.09106 320.13854,437.90627 C 319.89214,437.65933 316.80669,434.36121 316.81671,434.34609 C 317.13549,433.86586 317.49286,433.41563 317.83094,432.95040 C 318.70627,433.58488 319.51735,434.32074 320.33306,435.03778 C 320.92256,435.55751 321.50096,436.09102 322.04606,436.66031 C 322.83962,437.49329 322.68918,436.81216 321.36706,438.30619 C 321.40353,437.61129 321.32043,436.70216 321.31382,435.93826 C 321.30822,435.05814 321.32078,434.17698 321.46943,433.32434 C 321.49407,433.09228 321.60196,432.91968 321.71958,432.74225 C 321.72887,432.72726 321.73760,432.71188 321.74661,432.69670 L 322.99263,431.53441 C 322.98899,431.55536 322.99015,431.57765 322.98172,431.59724 C 322.87345,431.77235 322.75135,431.95592 322.69247,432.16571 C 322.49737,433.00948 322.47586,433.89570 322.47578,434.77958 C 322.47842,435.57380 322.46023,436.39542 322.65493,437.18714 C 321.49792,438.49940 321.78126,438.85454 320.95606,437.95888 C 320.43023,437.37887 319.87123,436.83184 319.28870,436.31221 C 318.59430,435.69308 317.62184,434.79999 316.97253,434.45005 C 317.30087,433.99570 317.61959,433.53348 317.95756,433.08702 C 318.06686,432.94264 318.16409,433.42999 318.29258,433.58254 C 319.20065,434.66072 320.18994,435.66718 321.15041,436.69596 C 321.68304,437.24457 322.21393,437.82192 322.81580,438.29125 C 322.93240,438.38217 323.26506,438.40767 323.19125,438.52148 C 321.74510,440.75122 322.48147,439.26180 321.54538,437.65510 C 318.92929,432.21442 316.19210,426.82418 313.68331,421.33798 C 312.89232,419.63891 312.11307,417.93521 311.35665,416.22259 L 312.51855,414.96141 z " />
    <text
       xml:space="preserve"
       style="font-size:12.000000;font-style:normal;font-weight:normal;fill:#000000;fill-opacity:1.0000000;stroke:none;stroke-width:1.0000000pt;stroke-linecap:butt;stroke-linejoin:miter;stroke-opacity:1.0000000;font-family:Bitstream Vera Sans"
       x="228.90192"
       y="463.66235"
       id="text1246"
       transform="translate(-38.28957,-8.669486)"><tspan
         sodipodi:role="line"
         id="tspan1247"
         x="228.90192"
         y="463.66235">Runtime Dependencies</tspan><tspan
         sodipodi:role="line"
         id="tspan1249"
         x="228.90192"
         y="475.66235"> (where different)</tspan></text>
    <path
       style="fill:#999999;fill-opacity:1.0000000;fill-rule:nonzero;stroke:none;stroke-width:1.0000000pt;stroke-linecap:butt;stroke-linejoin:miter;stroke-opacity:1.0000000"
       id="path1251"
       d="M 335.57042,442.53594 C 336.22727,444.61003 337.08363,446.62641 337.92914,448.63779 C 340.59085,454.96641 343.57660,461.16168 346.70281,467.28462 C 347.73799,469.31183 348.25528,469.62447 346.33018,471.12506 C 346.21868,471.21197 344.22784,469.05516 344.03297,468.84328 C 343.75933,468.56016 340.33271,464.77871 340.34385,464.76138 C 340.69787,464.21077 341.09476,463.69456 341.47022,463.16116 C 342.44233,463.88862 343.34309,464.73230 344.24900,465.55443 C 344.90368,466.15032 345.54605,466.76202 346.15141,467.41474 C 347.03272,468.36978 346.86565,467.58884 345.39733,469.30181 C 345.43784,468.50507 345.34555,467.46271 345.33821,466.58687 C 345.33199,465.57777 345.34594,464.56748 345.51102,463.58988 C 345.53839,463.32382 345.65820,463.12593 345.78884,462.92250 C 345.79915,462.90531 345.80884,462.88768 345.81885,462.87027 L 347.20265,461.53765 C 347.19861,461.56167 347.19990,461.58723 347.19053,461.60969 C 347.07028,461.81046 346.93469,462.02094 346.86929,462.26147 C 346.65263,463.22889 346.62874,464.24498 346.62864,465.25839 C 346.63158,466.16899 346.61138,467.11103 346.82761,468.01877 C 345.54266,469.52334 345.85734,469.93052 344.94089,468.90361 C 344.35692,468.23860 343.73611,467.61140 343.08917,467.01563 C 342.31798,466.30576 341.23799,465.28179 340.51689,464.88057 C 340.88154,464.35964 341.23550,463.82968 341.61084,463.31779 C 341.73223,463.15225 341.84021,463.71102 341.98291,463.88593 C 342.99138,465.12211 344.09006,466.27607 345.15673,467.45560 C 345.74826,468.08462 346.33785,468.74658 347.00626,469.28469 C 347.13576,469.38893 347.50520,469.41816 347.42323,469.54865 C 345.81718,472.10515 346.63497,470.39747 345.59537,468.55531 C 342.69001,462.31732 339.65017,456.13715 336.86397,449.84698 C 335.98552,447.89891 335.12011,445.94554 334.28005,443.98194 L 335.57042,442.53594 z " />
    <path
       style="fill:#999999;fill-opacity:1.0000000;fill-rule:nonzero;stroke:none;stroke-width:1.0000000pt;stroke-linecap:butt;stroke-linejoin:miter;stroke-opacity:1.0000000"
       id="path1873"
       d="M 447.27033,385.58442 C 449.41720,385.93694 451.60285,386.08543 453.77914,386.24133 C 460.62726,386.73062 467.50305,386.87060 474.37788,386.85260 C 476.65409,386.84651 477.16693,386.52662 477.63427,388.92232 C 477.66133,389.06107 474.83721,389.86080 474.56009,389.93874 C 474.18380,390.05469 469.26125,391.39989 469.25084,391.38212 C 468.91995,390.81730 468.63914,390.22982 468.33330,389.65367 C 469.42184,389.11582 470.58175,388.69419 471.72477,388.25821 C 472.55237,387.94394 473.38850,387.64779 474.24447,387.40321 C 475.49489,387.04930 474.72285,386.84500 475.58625,388.92942 C 474.89403,388.53285 473.92268,388.14359 473.13827,387.75391 C 472.23553,387.30294 471.34084,386.83345 470.54368,386.24397 C 470.31879,386.09919 470.19651,385.90282 470.07419,385.69428 C 470.06352,385.67731 470.05218,385.66069 470.04119,385.64389 L 469.47876,383.80692 C 469.49835,383.82139 469.52173,383.83180 469.53752,383.85032 C 469.66217,384.04839 469.78854,384.26453 469.97346,384.43167 C 470.73821,385.06255 471.63357,385.54353 472.53730,386.00208 C 473.35072,386.41141 474.18170,386.85560 475.08906,387.07343 C 475.84956,388.90003 476.35505,388.80360 475.02463,389.15633 C 474.16738,389.37628 473.32718,389.64618 472.50319,389.95361 C 471.52123,390.32023 470.11945,390.82014 469.43541,391.28172 C 469.13581,390.72085 468.82331,390.16543 468.53660,389.59912 C 468.44389,389.41597 468.99106,389.57246 469.21160,389.52433 C 470.77028,389.18420 472.29644,388.72643 473.83092,388.30877 C 474.65950,388.06580 475.51657,387.83946 476.29885,387.48680 C 476.45040,387.41847 476.64360,387.10222 476.72289,387.23436 C 478.27625,389.82321 477.12328,388.32134 475.01010,388.41509 C 468.13258,388.18409 461.24578,388.09918 454.37564,387.73830 C 452.24091,387.64042 450.10735,387.52850 447.97614,387.38936 L 447.27033,385.58442 z " />
    <g
       id="g2505"
       transform="translate(0.332223,-3.654458)">
      <rect
         style="fill:#ffffff;fill-opacity:1.0000000;stroke:#000000;stroke-width:1.0000000pt;stroke-linecap:butt;stroke-linejoin:miter;stroke-opacity:0.20994474"
         id="rect2497"
         width="54.491768"
         height="28.811739"
         x="217.34073"
         y="347.10092"
         transform="translate(186.6393,102.1555)" />
      <text
         xml:space="preserve"
         style="font-size:12.000000;font-style:normal;font-weight:normal;fill:#000000;fill-opacity:1.0000000;stroke:none;stroke-width:1.0000000pt;stroke-linecap:butt;stroke-linejoin:miter;stroke-opacity:1.0000000;font-family:Bitstream Vera Sans"
         x="474.14102"
         y="351.48532"
         id="text2498"
         transform="translate(-61.07899,116.5613)"><tspan
           sodipodi:role="line"
           id="tspan2499"
           x="474.14102"
           y="351.48532">Spring</tspan></text>
    </g>
    <path
       style="fill:#000000;fill-opacity:1.0000000;fill-rule:nonzero;stroke:none;stroke-width:1.0000000pt;stroke-linecap:butt;stroke-linejoin:miter;stroke-opacity:1.0000000"
       id="path2510"
       d="M 496.12334,391.01858 C 495.21156,394.60059 494.62405,398.26094 494.02603,401.90507 C 492.14632,413.37213 490.82794,424.90823 489.76556,436.45295 C 489.41403,440.27532 489.85066,441.15710 485.89659,441.78697 C 485.66756,441.82345 484.82080,437.02977 484.73858,436.55944 C 484.61052,435.92011 483.21352,427.56771 483.24396,427.55136 C 484.21123,427.03227 485.20725,426.59874 486.18889,426.12243 C 486.88712,427.98496 487.38580,429.95983 487.91039,431.90725 C 488.28796,433.31719 488.63482,434.74026 488.89502,436.19334 C 489.26964,438.31580 489.72309,437.03267 486.21026,438.34769 C 486.96241,437.21101 487.74704,435.60518 488.50268,434.31326 C 489.37637,432.82660 490.27876,431.35468 491.36001,430.05427 C 491.63018,429.68601 491.96764,429.49338 492.32478,429.30146 C 492.35395,429.28465 492.38269,429.26669 492.41164,429.24929 L 495.47593,428.42366 C 495.44939,428.45562 495.42881,428.49421 495.39632,428.51953 C 495.05576,428.71603 494.68565,428.91424 494.38560,429.21394 C 493.24245,430.45724 492.32133,431.92956 491.43521,433.41739 C 490.64315,434.75674 489.79184,436.12334 489.29501,437.63282 C 486.21605,438.79170 486.29196,439.64671 485.93194,437.39000 C 485.71183,435.93637 485.40812,434.50816 485.04107,433.10471 C 484.60323,431.43222 484.01618,429.04618 483.37726,427.86778 C 484.33316,427.40095 485.28229,426.91214 486.24495,426.46733 C 486.55628,426.32349 486.21597,427.23213 486.25891,427.60555 C 486.56228,430.24471 487.06134,432.83687 487.49410,435.44043 C 487.75605,436.84739 487.98652,438.30113 488.43346,439.63746 C 488.52007,439.89634 489.00155,440.24118 488.77496,440.36578 C 484.33565,442.80670 486.95101,440.96781 487.13471,437.41351 C 488.60078,425.88038 489.83172,414.32225 491.50697,402.80989 C 492.00442,399.23179 492.52441,395.65657 493.08814,392.08705 L 496.12334,391.01858 z " />
    <path
       style="fill:#000000;fill-opacity:1.0000000;fill-rule:nonzero;stroke:none;stroke-width:1.0000000pt;stroke-linecap:butt;stroke-linejoin:miter;stroke-opacity:1.0000000"
       id="path2511"
       d="M 433.66314,388.10328 C 435.22053,391.45539 437.07873,394.66326 438.91853,397.86520 C 444.70949,407.93950 450.97908,417.71253 457.45249,427.33042 C 459.59596,430.51472 460.49165,430.92207 457.82558,433.90931 C 457.67118,434.08232 453.98519,430.90271 453.62420,430.59020 C 453.12089,430.17570 446.75927,424.58606 446.77252,424.55415 C 447.19401,423.54055 447.69186,422.57505 448.15153,421.58551 C 449.86980,422.58756 451.50444,423.80277 453.14181,424.98034 C 454.32553,425.83431 455.49375,426.71788 456.61380,427.67947 C 458.24558,429.08747 457.78599,427.80651 455.89490,431.04582 C 455.75935,429.68958 455.35245,427.94924 455.12149,426.47049 C 454.85890,424.76623 454.62790,423.05523 454.64389,421.36411 C 454.62050,420.90795 454.76026,420.54539 454.91572,420.17096 C 454.92770,420.13948 454.93861,420.10740 454.95006,420.07564 L 456.80286,417.49907 C 456.80250,417.54061 456.81094,417.58352 456.80176,417.62367 C 456.66203,417.99119 456.50050,418.37872 456.45741,418.80062 C 456.35735,420.48661 456.57411,422.20974 456.82779,423.92277 C 457.06051,425.46131 457.26454,427.05840 457.83357,428.54217 C 456.18004,431.38624 456.77924,432.00085 455.07392,430.47959 C 453.98462,429.49223 452.84657,428.57741 451.67510,427.72182 C 450.27872,426.70246 448.31573,425.22447 447.07580,424.71511 C 447.52153,423.74918 447.94809,422.77049 448.41296,421.81736 C 448.56330,421.50912 448.87388,422.42835 449.14317,422.69059 C 451.04631,424.54403 453.07139,426.23737 455.05231,427.98144 C 456.14454,428.90619 457.24197,429.88707 458.43294,430.64015 C 458.66367,430.78605 459.25474,430.74896 459.15791,430.98872 C 457.26046,435.68611 458.12497,432.60806 456.02086,429.73760 C 449.86761,419.87354 443.51632,410.13870 437.53830,400.15853 C 435.66229,397.07132 433.80558,393.97208 431.98636,390.84963 L 433.66314,388.10328 z " />
    <path
       style="fill:#999999;fill-opacity:1.0000000;fill-rule:nonzero;stroke:none;stroke-width:1.0000000pt;stroke-linecap:butt;stroke-linejoin:miter;stroke-opacity:1.0000000"
       id="path2512"
       d="M 526.71089,438.75722 C 525.45899,440.53656 524.37390,442.43964 523.28621,444.33106 C 519.86475,450.28334 516.74571,456.41260 513.76933,462.60975 C 512.78399,464.66165 512.84874,465.26259 510.48849,464.64050 C 510.35179,464.60446 510.86114,461.71382 510.91161,461.43041 C 510.97101,461.04117 511.90271,456.02390 511.92325,456.02226 C 512.57578,455.97023 513.22692,455.97315 513.87875,455.94860 C 513.88913,457.16272 513.76382,458.39051 513.65877,459.60933 C 513.58145,460.49121 513.48410,461.37288 513.33170,462.24997 C 513.10601,463.52976 513.62600,462.92364 511.37360,462.79360 C 512.03195,462.34303 512.80521,461.63798 513.49749,461.10141 C 514.29645,460.48499 515.10858,459.88388 515.98629,459.42281 C 516.21452,459.28336 516.44454,459.25876 516.68553,459.23941 C 516.70546,459.23719 516.72535,459.23422 516.74527,459.23163 L 518.64389,459.52491 C 518.62233,459.53626 518.60278,459.55277 518.57924,459.55893 C 518.34666,459.58493 518.09706,459.60461 517.86609,459.69834 C 516.96523,460.11221 516.14246,460.70892 515.33624,461.32293 C 514.61365,461.87706 513.85202,462.43183 513.26095,463.15390 C 511.28544,463.04345 511.15222,463.54051 511.41378,462.18921 C 511.58893,461.32169 511.71167,460.44778 511.79358,459.57213 C 511.89096,458.52850 512.05109,457.04889 511.93329,456.23213 C 512.56865,456.20655 513.20472,456.16698 513.83937,456.15537 C 514.04461,456.15163 513.66554,456.57612 513.61288,456.79563 C 513.24060,458.34694 512.98840,459.92019 512.69645,461.48347 C 512.55452,462.33519 512.38520,463.20532 512.36217,464.06311 C 512.35772,464.22930 512.55834,464.54090 512.40486,464.55476 C 509.39798,464.82631 511.25198,464.44206 512.08744,462.49878 C 515.28917,456.40760 518.36341,450.24447 521.67886,444.21645 C 522.69622,442.33719 523.72570,440.46509 524.77869,438.60696 L 526.71089,438.75722 z " />
    <path
       style="fill:#000000;fill-opacity:1.0000000;fill-rule:nonzero;stroke:none;stroke-width:1.0000000pt;stroke-linecap:butt;stroke-linejoin:miter;stroke-opacity:1.0000000"
       id="path1157"
       d="M 401.06992,259.73010 C 397.82638,261.50256 394.74637,263.56578 391.67109,265.61026 C 381.99542,272.04518 372.65157,278.93809 363.47581,286.02429 C 360.43791,288.37064 360.08977,289.29096 356.93520,286.82516 C 356.75249,286.68235 359.68523,282.79706 359.97357,282.41648 C 360.35440,281.88724 365.51774,275.17500 365.55045,275.18615 C 366.58936,275.54073 367.58524,275.97461 368.60261,276.36884 C 367.71464,278.14874 366.60849,279.85907 365.54007,281.56967 C 364.76504,282.80652 363.95945,284.02981 363.07287,285.21012 C 361.77416,286.93015 363.02245,286.38811 359.66683,284.71205 C 361.01136,284.48843 362.72149,283.96903 364.18206,283.64222 C 365.86560,283.26917 367.55792,282.92720 369.24649,282.83301 C 369.70015,282.77994 370.07103,282.89577 370.45480,283.02652 C 370.48700,283.03643 370.51972,283.04523 370.55217,283.05457 L 373.24395,284.73561 C 373.20248,284.73794 373.16021,284.74916 373.11955,284.74262 C 372.74370,284.62714 372.34647,284.49120 371.92268,284.47568 C 370.23375,284.48566 368.52838,284.81420 366.83551,285.17893 C 365.31541,285.51138 363.73501,285.81902 362.29146,286.48350 C 359.34570,285.01874 358.77144,285.65673 360.17837,283.85593 C 361.09267,282.70461 361.93142,281.50938 362.70888,280.28467 C 363.63511,278.82486 364.98209,276.76975 365.40960,275.49928 C 366.40249,275.88112 367.40689,276.24303 368.38830,276.64482 C 368.70568,276.77477 367.80864,277.14457 367.56449,277.43037 C 365.83896,279.45021 364.28114,281.58129 362.66982,283.67161 C 361.81817,284.82177 360.91088,285.98077 360.23696,287.21827 C 360.10641,287.45800 360.18194,288.04541 359.93637,287.96440 C 355.12536,286.37699 358.25318,287.03914 360.98047,284.75251 C 370.42275,277.96976 379.72316,270.99780 389.29271,264.38233 C 392.25116,262.30921 395.22287,260.25455 398.22018,258.23579 L 401.06992,259.73010 z " />
    <path
       style="fill:#000000;fill-opacity:1.0000000;fill-rule:nonzero;stroke:none;stroke-width:1.0000000pt;stroke-linecap:butt;stroke-linejoin:miter;stroke-opacity:1.0000000"
       id="path1158"
       d="M 396.51117,241.31268 C 392.92463,242.20656 389.42274,243.42311 385.93014,244.62273 C 374.94091,248.39941 364.15676,252.70315 353.48633,257.23643 C 349.95351,258.73755 349.38379,259.53980 346.95597,256.35591 C 346.81535,256.17150 350.63591,253.15493 351.01118,252.85972 C 351.51356,252.44409 358.20755,247.25712 358.23637,247.27619 C 359.15172,247.88215 360.00537,248.55394 360.88986,249.19282 C 359.58033,250.69004 358.07733,252.06474 356.61078,253.44925 C 355.54794,254.44969 354.45899,255.42927 353.30255,256.34679 C 351.61082,257.68213 352.95566,257.47366 350.13346,255.00292 C 351.49081,255.12686 353.27672,255.05717 354.77245,255.11065 C 356.49559,255.17582 358.21936,255.27327 359.87680,255.60949 C 360.32912,255.67297 360.65860,255.87890 360.99680,256.10251 C 361.02544,256.12026 361.05487,256.13705 361.08389,256.15429 L 363.26261,258.46185 C 363.22190,258.45361 363.17817,258.45377 363.14047,258.43715 C 362.80610,258.23030 362.45620,257.99826 362.05013,257.87598 C 360.41366,257.45820 358.68067,257.34446 356.95060,257.26887 C 355.39585,257.20578 353.78904,257.10343 352.22432,257.38094 C 349.74516,255.21835 349.02814,255.69023 350.84503,254.30413 C 352.02093,253.42169 353.13486,252.47764 354.19697,251.48957 C 355.46249,250.31169 357.28573,248.66440 358.02086,247.54347 C 358.88480,248.16416 359.76491,248.76850 360.61266,249.40558 C 360.88683,249.61163 359.92541,249.74235 359.61687,249.95706 C 357.43633,251.47443 355.38988,253.14189 353.30200,254.75636 C 352.18700,255.65354 351.01591,256.54518 350.05076,257.57184 C 349.86378,257.77072 349.78818,258.35813 349.57111,258.21760 C 345.31846,255.46429 348.17688,256.89648 351.39409,255.37453 C 362.24557,251.20226 373.00768,246.81107 383.93996,242.83286 C 387.32677,241.57596 390.72172,240.34027 394.13237,239.14581 L 396.51117,241.31268 z " />
    <text
       xml:space="preserve"
       style="font-size:12.000000;font-style:italic;font-variant:normal;font-weight:normal;font-stretch:normal;fill:#000000;fill-opacity:1.0000000;stroke:none;stroke-width:1.0000000pt;stroke-linecap:butt;stroke-linejoin:miter;stroke-opacity:1.0000000;font-family:Nimbus Roman No9 L;text-anchor:start;writing-mode:lr"
       x="210.3446"
       y="394.08701"
       id="text1165"
       sodipodi:linespacing="100%"
       transform="matrix(0.467577,0.000000,0.000000,0.497335,379.7826,40.57181)"><tspan
         sodipodi:role="line"
         id="tspan1166"
         x="210.34460"
         y="394.08701">PerfTest</tspan></text>
    <text
       xml:space="preserve"
       style="font-size:12.000000;font-style:italic;font-variant:normal;font-weight:normal;font-stretch:normal;fill:#000000;fill-opacity:1.0000000;stroke:none;stroke-width:1.0000000pt;stroke-linecap:butt;stroke-linejoin:miter;stroke-opacity:1.0000000;font-family:Nimbus Roman No9 L;text-anchor:start;writing-mode:lr"
       x="210.3446"
       y="394.08701"
       id="text1172"
       sodipodi:linespacing="100%"
       transform="matrix(0.467577,0.000000,0.000000,0.497335,341.7487,166.5974)"><tspan
         sodipodi:role="line"
         id="tspan1173"
         x="210.34460"
         y="394.08701">   Shared I+U Tests</tspan></text>
  </g>
</svg>
